<svg width="275" height="311" viewBox="0 0 275 311" fill="none" xmlns="http://www.w3.org/2000/svg">
<path d="M270.999 173.108V292.453C270.999 300.424 264.54 306.883 256.569 306.883H18.4304C10.4598 306.883 4.00049 300.424 4.00049 292.453V173.108C4.00049 169.15 5.08831 165.34 7.05491 162.058C8.88622 158.985 11.486 156.367 14.6812 154.506L126.929 88.9695C133.461 85.1594 141.537 85.1594 148.069 88.9695L260.317 154.506C263.513 156.368 266.112 158.985 267.943 162.058C269.911 165.34 270.999 169.15 270.999 173.108Z" fill="#8D9CA8"/>
<path d="M267.945 162.058C266.114 158.985 263.514 156.367 260.318 154.506L148.07 88.9695C141.538 85.1594 133.463 85.1594 126.93 88.9695L125.296 89.9233L235.91 154.505C239.106 156.367 241.705 158.985 243.537 162.058C245.504 165.339 246.591 169.149 246.591 173.107V292.453C246.591 300.423 240.133 306.882 232.162 306.882H256.57C264.541 306.882 271 300.424 271 292.453V173.108C270.999 169.15 269.911 165.34 267.945 162.058Z" fill="#7A8C98"/>
<path d="M231.472 218.325H41.0212V37.711C41.0212 32.2786 45.4249 27.8749 50.8573 27.8749H221.636C227.068 27.8749 231.472 32.2786 231.472 37.711V218.325Z" fill="#FEF0AE"/>
<path d="M221.636 27.8755H206.364C211.797 27.8755 216.2 32.2792 216.2 37.7116V218.326H231.471V37.711C231.472 32.2792 227.068 27.8755 221.636 27.8755Z" fill="#FEE97D"/>
<path d="M270.999 173.108V292.453C270.999 300.424 264.54 306.883 256.569 306.883H18.4304C10.4598 306.883 4.00049 300.424 4.00049 292.453V173.108C4.00049 169.15 5.08831 165.34 7.05491 162.058L137.5 218.326L267.944 162.058C269.911 165.34 270.999 169.15 270.999 173.108Z" fill="#66ADFF"/>
<path d="M267.945 162.058L246.498 171.309C246.548 171.905 246.582 172.504 246.582 173.108V292.453C246.582 300.424 240.123 306.883 232.152 306.883H256.569C264.54 306.883 270.999 300.424 270.999 292.453V173.108C270.999 169.15 269.911 165.34 267.945 162.058Z" fill="#2984EE"/>
<path d="M256.502 17.5916C262.46 19.1517 265.284 25.9681 262.174 31.2847C260.477 34.1855 260.477 37.7763 262.174 40.6771C265.284 45.9937 262.46 52.8101 256.502 54.3702C253.251 55.2216 250.712 57.7604 249.86 61.0117C248.3 66.97 241.484 69.7935 236.167 66.6836C233.267 64.9863 229.676 64.9863 226.775 66.6836C221.458 69.7935 214.642 66.97 213.082 61.0117C212.23 57.7604 209.692 55.2216 206.44 54.3702C200.482 52.8101 197.659 45.9937 200.768 40.6771C202.466 37.7763 202.466 34.1855 200.768 31.2847C197.659 25.9681 200.482 19.1517 206.44 17.5916C209.692 16.7402 212.23 14.2014 213.082 10.9501C214.642 4.99179 221.458 2.16834 226.775 5.27822C229.676 6.97546 233.267 6.97546 236.167 5.27822C241.484 2.16834 248.3 4.99179 249.86 10.9501C250.712 14.2014 253.251 16.7408 256.502 17.5916Z" fill="#62DBFB"/>
<path d="M263.455 45.3556C263.455 49.4083 260.792 53.2476 256.502 54.369C254.875 54.7956 253.424 55.6427 252.279 56.7884C251.133 57.9341 250.286 59.3845 249.859 61.0117C248.738 65.302 244.898 67.9652 240.846 67.9652C239.371 67.9652 237.872 67.6117 236.464 66.8439C242.942 58.2571 246.788 47.5678 246.788 35.9827C246.788 24.3976 242.942 13.7022 236.47 5.11549C237.872 4.35371 239.371 4.00024 240.852 4.00024C244.899 4.00024 248.738 6.66342 249.859 10.9477C250.286 12.5748 251.133 14.0252 252.279 15.171C253.424 16.3228 254.875 17.1638 256.502 17.5904C262.462 19.1505 265.284 25.9699 262.176 31.2841C261.322 32.7345 260.902 34.3556 260.902 35.9827C260.902 37.6038 261.322 39.2248 262.176 40.6753C263.047 42.1683 263.455 43.7772 263.455 45.3556Z" fill="#01D0FB"/>
<path d="M119.273 86.1113H85.2585C79.0735 86.1113 74.0598 81.0976 74.0598 74.9126C74.0598 68.7276 79.0735 63.7139 85.2585 63.7139H119.273C125.458 63.7139 130.472 68.7276 130.472 74.9126C130.472 81.0976 125.458 86.1113 119.273 86.1113Z" fill="#FE5694"/>
<path d="M270.999 292.453C270.999 300.424 264.54 306.883 256.569 306.883H18.4304C10.4598 306.883 4.00049 300.424 4.00049 292.453V173.108C4.00049 169.15 5.08831 165.34 7.05491 162.058L137.5 218.326L267.944 162.058" stroke="black" stroke-width="6.8" stroke-miterlimit="10" stroke-linecap="round" stroke-linejoin="round"/>
<path d="M271 272.025V292.452C271 300.423 264.54 306.883 256.569 306.883H18.4311C10.4599 306.883 4 300.423 4 292.452V173.109C4 169.148 5.09087 165.339 7.05321 162.06C8.88757 158.982 11.4837 156.368 14.6832 154.503L41.0224 139.127" stroke="black" stroke-width="6.8" stroke-miterlimit="10" stroke-linecap="round" stroke-linejoin="round"/>
<path d="M231.473 137.665L260.317 154.503C263.517 156.368 266.113 158.982 267.947 162.06C269.909 165.339 271 169.148 271 173.109V250.587" stroke="black" stroke-width="6.8" stroke-miterlimit="10" stroke-linecap="round" stroke-linejoin="round"/>
<path d="M8.21411 302.644L137.499 218.325L266.785 302.644" stroke="black" stroke-width="6.8" stroke-miterlimit="10" stroke-linecap="round" stroke-linejoin="round"/>
<path d="M231.473 177.795V65.4117" stroke="black" stroke-width="6.8" stroke-miterlimit="10" stroke-linecap="round" stroke-linejoin="round"/>
<path d="M41.0225 117.725V37.7135C41.0225 32.2775 45.4225 27.8774 50.8585 27.8774H199.582" stroke="black" stroke-width="6.8" stroke-miterlimit="10" stroke-linecap="round" stroke-linejoin="round"/>
<path d="M41.0225 176.711V139.127" stroke="black" stroke-width="6.8" stroke-miterlimit="10" stroke-linecap="round" stroke-linejoin="round"/>
<path d="M256.502 17.5916C262.46 19.1517 265.284 25.9681 262.174 31.2847C260.477 34.1855 260.477 37.7763 262.174 40.6771C265.284 45.9937 262.46 52.8101 256.502 54.3702C253.251 55.2216 250.712 57.7604 249.86 61.0117C248.3 66.97 241.484 69.7935 236.167 66.6836C233.267 64.9863 229.676 64.9863 226.775 66.6836C221.458 69.7935 214.642 66.97 213.082 61.0117C212.23 57.7604 209.692 55.2216 206.44 54.3702C200.482 52.8101 197.659 45.9937 200.768 40.6771C202.466 37.7763 202.466 34.1855 200.768 31.2847C197.659 25.9681 200.482 19.1517 206.44 17.5916C209.692 16.7402 212.23 14.2014 213.082 10.9501C214.642 4.99179 221.458 2.16834 226.775 5.27822C229.676 6.97546 233.267 6.97546 236.167 5.27822C241.484 2.16834 248.3 4.99179 249.86 10.9501C250.712 14.2014 253.251 16.7408 256.502 17.5916Z" stroke="black" stroke-width="6.8" stroke-miterlimit="10" stroke-linecap="round" stroke-linejoin="round"/>
<path d="M230.606 36.8463L210.662 56.7903" stroke="black" stroke-width="6.8" stroke-miterlimit="10" stroke-linecap="round" stroke-linejoin="round"/>
<path d="M123.779 276.889H151.221" stroke="black" stroke-width="6.8" stroke-miterlimit="10" stroke-linecap="round" stroke-linejoin="round"/>
<path d="M119.273 86.1113H85.2585C79.0735 86.1113 74.0598 81.0976 74.0598 74.9126C74.0598 68.7276 79.0735 63.7139 85.2585 63.7139H119.273C125.458 63.7139 130.472 68.7276 130.472 74.9126C130.472 81.0976 125.458 86.1113 119.273 86.1113Z" stroke="black" stroke-width="6.8" stroke-miterlimit="10" stroke-linecap="round" stroke-linejoin="round"/>
<path d="M74.0598 108.161H200.94" stroke="black" stroke-width="6.8" stroke-miterlimit="10" stroke-linecap="round" stroke-linejoin="round"/>
<path d="M74.0598 127.309H200.94" stroke="black" stroke-width="6.8" stroke-miterlimit="10" stroke-linecap="round" stroke-linejoin="round"/>
<path d="M74.0598 146.458H200.94" stroke="black" stroke-width="6.8" stroke-miterlimit="10" stroke-linecap="round" stroke-linejoin="round"/>
<path d="M74.0598 165.606H130.472" stroke="black" stroke-width="6.8" stroke-miterlimit="10" stroke-linecap="round" stroke-linejoin="round"/>
</svg>
