<svg width="512" height="512" viewBox="0 0 512 512" fill="none" xmlns="http://www.w3.org/2000/svg">
<g clip-path="url(#clip0)">
<path fill-rule="evenodd" clip-rule="evenodd" d="M175.284 190.67L175.333 190.67L240.667 190.67V321.337H175.333C139.251 321.337 110 292.086 110 256.003C110 219.937 139.224 190.697 175.284 190.67ZM336.078 160.67C336.052 160.67 336.026 160.67 336 160.67C335.975 160.67 335.949 160.67 335.923 160.67H271V30.0037H336.333C372.416 30.0037 401.667 59.2544 401.667 95.3369C401.667 131.419 372.416 160.67 336.333 160.67H336.078ZM387.521 175.777C414.063 158.852 431.667 129.15 431.667 95.3369C431.667 42.6858 388.984 0.00366211 336.333 0.00366211H270.667H256H255.667H241H175.333C122.682 0.00366211 80 42.6858 80 95.3369C80 129.079 97.5298 158.727 123.979 175.67C97.5298 192.613 80 222.261 80 256.003C80 289.746 97.5298 319.393 123.979 336.337C97.5298 353.28 80 382.928 80 416.67C80 469.321 122.682 512.003 175.333 512.003C227.984 512.003 270.667 469.321 270.667 416.67V351.337V336.337V325.429C287.73 341.493 310.716 351.337 336 351.337C388.652 351.337 431.334 308.655 431.334 256.003C431.334 222.332 413.877 192.738 387.521 175.777ZM335.937 190.67H336.064C372.118 190.705 401.334 219.942 401.334 256.003C401.334 292.086 372.083 321.337 336 321.337C299.918 321.337 270.667 292.086 270.667 256.003C270.667 219.942 299.883 190.705 335.937 190.67ZM175.333 351.337H240.667V416.67C240.667 452.753 211.416 482.003 175.333 482.003C139.251 482.003 110 452.753 110 416.67C110 380.587 139.251 351.337 175.333 351.337ZM175.284 160.67L175.333 160.67H240.667V30.0037H175.333C139.251 30.0037 110 59.2544 110 95.3369C110 131.403 139.224 160.644 175.284 160.67Z" fill="white"/>
</g>
<defs>
<clipPath id="clip0">
<rect width="512" height="512" fill="white"/>
</clipPath>
</defs>
</svg>
