<svg xmlns="http://www.w3.org/2000/svg" fill="none" viewBox="0 0 478 573">
  <path fill="#E8975F" d="m126.6 249.3-.3-.7c-.2-.4-.6-.7-1-1l-.6-.2c-.5-.2-1-.2-1.4 0a3 3 0 0 0-2.1 3.6 3 3 0 0 0 1.2 1.7c.3.2.7.3 1 .3h1.1l.7-.3 1-1v-.2l.1-.2c.2-.3.3-.6.3-1v-1Z"/>
  <path fill="#F4A7BD" d="m289 4 1-.6-1 .5Zm-13.9 9.7Zm12.3-8.9Zm-46.5 27.5-3 1.8-1.4.9-1.3.9 2.6-1.7 3-1.9Z"/>
  <path fill="#EF7C79" d="M330.1 229.6a19.1 19.1 0 0 1 2.4-.7c1-.2 2.1-.3 3.2-.3 2-.1 4 0 6.2-.2 0-.4-3-.5-4.4-.8-.7-.1-1-.3-.2-.6l2-.5.7-.1c-4.5.8-8.6 1.5-5-.4a17 17 0 0 0-3.7 1.1c-.5.3-.4.5-.3.8.3.4.9.9-.9 1.7Zm0 0Zm9.9-3.2 3.3-.6-3.3.6Zm-40.7 8.4 1.3-.2h-.5l-.7.2-1.3.2-2.4.4a63.3 63.3 0 0 0 3.6-.6Zm-18.4 1.6-2.2.6v1.9c4.1-1.6 2.1-2.2 2.2-2.5Zm-28.7 5.9-1.9.9-1.6.8-1.4.6 2-.3 1-.2a63.8 63.8 0 0 0 5-1.4l8.8-2.6-3 .7c-.5 0-.5-.1-.4-.3.3-.5 1.3-1.2 1.3-1.6-1.2.2-2.4.4-3.6.8a46.8 46.8 0 0 0-6.2 2.6Zm-5.2-.2 2.4-.9 2.4-.9 2-.7 2-.7c-.8-.3-1.7-.2-2.6 0l-3 1.2-1.6.8-1.8 1c-.6.2-1.2.6-1.9 1l-2 .9 2-.9 2.2-.8ZM219 261l.3-.2 1.2-1 1.4-1.2.7-.6.8-.6.7-.6.4-.3.4-.3 1.5-1 1.5-1 .7-.5.7-.3-.4.1-1 .4-3 1.4-.8.4-.8.5-1.4.8-1.5 1a4 4 0 0 0-.5.7l-.2.5c0 .3-.2.6-.4.8 0 0 0 .2-.2.3a6.5 6.5 0 0 1-.2.3l-.6.8.5-.2.2-.2Z"/>
  <path fill="#F4A7BD" d="M449 231.1a77.4 77.4 0 0 0-4.8-26.6 99.5 99.5 0 0 0-10.8-21.9l-1.5-2.2-3.6-7.8a20.8 20.8 0 0 1-1.7-10 18 18 0 0 1 3.5-8c3.3-4.8 7.1-9 10-14a73.8 73.8 0 0 0 3.2-63.8c-4.6-10.9-12-20-21-27.5-9.3-8-20-14-30.8-19.8l-7.4-4-1.4-.8-5.1-2.6-1.7-.8a149 149 0 0 0-20.3-8.5 78.3 78.3 0 0 0-19.2-4 55.5 55.5 0 0 0-7.5-.3 84 84 0 0 0-16.2 1.9A184 184 0 0 0 279 20.8c-11 4.5-21.5 9.9-31.6 16-3 2-5.1 4-7.2 6l-1.5 1.6-.4.4-.4.3a31.4 31.4 0 0 1-7.2 4.4l-2.3 1-4.5 2-2.4 1.4-2.5 1.7-5 3.5-1.2.8-1.2.9-2 1.4-3.2 2a110 110 0 0 0-14.3 9.5l-1.3 1-1.3 1-1.3 1-1.3 1-2.6 2.3-2.6 2.3c-.5.4-1 .8-1.3 1.3l-1.3 1.2-1.3 1.4-.6.6-.7.7-1.2 1.4-1.3 1.4-1.2 1.5-.6.7-.5.8-2.3 3.1-2.1 3.3-.5.8-.5.9-1 1.7-.8 1.8-.5.9-.4.9-.4.9-.4.9-.7 1.7a2934 2934 0 0 1-2.8 6.6 42.8 42.8 0 0 1-3 5.6l-.3.3-.2.3-.5.6-.5.6-.5.6a52.2 52.2 0 0 1-12.1 10l-2.6 1.7-5 3.3a90.4 90.4 0 0 0-18.8 16.4 103 103 0 0 0-13.2 22.7 135.3 135.3 0 0 0-9.3 35.2c-.6 6.6-.6 13.7-.2 21a261.9 261.9 0 0 0 4 32.8l.8 5.3a1437.3 1437.3 0 0 1 .8 5.1c1 3.6 2 7.5 3.6 11.5l1.6 4.7.3.6.2.6.7 1.4.6 1.3.8 1.3a34.7 34.7 0 0 0 7.6 8.7 54 54 0 0 0 4.8 3.6l.5.4.9.7 1.4 1 1 .7c.7.4 1.3.9 1.8 1.4a6 6 0 0 1 2 4.1c0 .8 0 1.6-.2 2.3a42.6 42.6 0 0 1-3.2 6.2c0 .2-.2.4-.3.5l-.5.7-1 1.4-4.2 5.7a400.1 400.1 0 0 0-13.2 19.3l-1 1.6-.8 1.5-.9 1.6-.4.8-.4.8-.8 1.7-1.5 3.2-1.4 3.3-1.2 3.4-.3.9-.2.4-.1.4-.5 1.8-.5 1.7-.2.9-.2.8a57 57 0 0 0-1.2 7l-.1 1.8-.1.9v.8l-.1 3.6v2.6l.1.9v.8l.2 1 .2 1.6.1.9.2.9.1.8.2.8a1461.4 1461.4 0 0 0 .9 3.4l.2.8.3.8.5 1.6 1.3 3.2.3.7.2.4.2.4.8 1.5c0 .3.2.5.4.8l.4.7.4.8.5.7 1 1.4 1 1.4.5.7.6.7 1 1.3c1.6 1.7 3.3 3.2 5 4.6l1.4 1 .7.6.7.4 1.4 1 1.4.8.4.3.3.2.8.4.7.4.7.3 1.5.8 1.5.6c2 .9 4 1.6 6.1 2.2l.8.3.8.2 1.5.4 3.1.7 3.1.6 3.1.4 1.6.2 1.5.1h.8l.8.1 1.5.1c4.1.2 8.2 0 12.3-.2 8.1-.7 16-2.2 23.5-4.3a244.4 244.4 0 0 0 32.4-11l10.2-4.2 2.6-1h2.8c3.3-1.6 6.6-3 8.5-4.2a5 5 0 0 0 1.3-.9 418.2 418.2 0 0 1 7-2.6l3-.8 1-.2.8-.2a84.2 84.2 0 0 0 3.3-1l1.5-.4a51.4 51.4 0 0 0 6.8-2.6l1.2-.6c2.8-.2 3.3-.1 3.5 0 .3.3.2.5 1.8.5l1.8-.4.9-.2.9-.1 3.6-.6h.9l1-.2 1.9-.2 3.8-.2a108.5 108.5 0 0 1 12.8.4 57.6 57.6 0 0 0 7 1l7.8.8.2-.5 4.6.5 4.2.3a95.5 95.5 0 0 0 36.5-4.3l1.8-.7 1.8-.7 1.7-.8.8-.4.8-.4.8-.4.4-.2.4-.2 1.6-.9 1.5-.8.8-.5.7-.4.7-.4.7-.5 1.4-.9 2.6-1.8c3-2.2 5.9-4.5 8.6-7l.9-1.4.8-1.5.8-1.5.8-1.6 1.7-3 .8-1.6.8-1.6a127.5 127.5 0 0 0 5.7-13.7c.8-2.4 1.4-4.9 2-7.4l.1-.4v-.5l.3-1 .2-.9.1-1 .2-1v-.9l.2-1v-.4l.1-.5a43.1 43.1 0 0 0-.3-11.6l-.5-3.6c-.4-2.8-1-5.5-1.5-8.2a97.8 97.8 0 0 1-1.5-11.4v-2.7l.1-.7c.3-2.2.9-4.4 1.8-6.3 1-2.1 2.2-4 3.7-5.8a41 41 0 0 1 9.2-8l1.4-1 5.7-3.6a166.5 166.5 0 0 0 9.6-6.5c3.1-2.4 6.1-5 8.7-8l1-1.2.9-1.1.9-1.2.8-1.2 1.6-2.4.7-1.2.7-1.2a56.7 56.7 0 0 0 7-25.4l.2-2.4V231Z"/>
  <path fill="#EF7C79" d="M457.7 308c3.5-2.2 7.4-4.1 10.4-6.5 5.6-4.5 8.6-9.6 9.2-14.7.5-5-1.4-10.2-6-14.9-4.7-5-12.4-9.2-21.7-12.7a278 278 0 0 0-32.2-9.1l-19.3-4.5c-2.2-.7-2.3-.4-4.5-.8l-2.4-.6a240.3 240.3 0 0 0-50-4.3c-8.7.4-17.8 1.3-27 2.6a466 466 0 0 0-26.7 4.5l-3.6 1.2-3 1.4c-2.1 1-4.1 2.1-6.7 2.8l-7.7.6-4.2 1.3-2.3.7-2.2.7-1 .3-1 .2-2 .5-2.7.5a111 111 0 0 0-18 3.2 227.4 227.4 0 0 0-42.1 15.5 65.6 65.6 0 0 0-9.6 6.4l-.2.3-.3.2-.6.5-.5.5-.4.5-1.8 1.7a24.5 24.5 0 0 1-5.4 4.1l-.5.3-1.1.5a62.1 62.1 0 0 1-10.6 3.7l-6 1.8a327 327 0 0 0-19 6.4l-1.8.7-1.7.8-1.7.9-1.7.9a42.6 42.6 0 0 0-17.7 16.3 38.3 38.3 0 0 0-3.6 9.4c-.8 3.4-1 6.8-.9 10.2.2 3.3.6 6.5 1.4 9.7a92.1 92.1 0 0 0 4 12.8l.7 2 .8 2a21.5 21.5 0 0 0 6 8l.6.6.7.5a27.7 27.7 0 0 0 7.8 4.6l.6.3.5.2.4.2.5.2 1 .4 1 .3 3.5 1.3 2.2.7-5.2 3.2-3 2a523.6 523.6 0 0 0-7.5 4.8l-.7.5-.9.7a61.2 61.2 0 0 0-6.9 5.7c-2 2-3.8 4.2-5.4 6.6l-.5.9-.2.4-.3.5-.4 1-.2.4-.2.4-.7 2-.4 2-.1.5-.1.6v3.6c.2 1.5.6 3 1.2 4.5.7 1.4 1.5 2.8 2.4 4l1.5 1.7.4.4.4.4.8.8 1 .8.8.7 1 .6 1 .7c1.2.8 2.6 1.5 4 2.2a51 51 0 0 0 8.6 3l1.4.3 1.2.3 1.2.3 1.2.2a121.7 121.7 0 0 0 14.2 1.9l1.2.1h1.2a132 132 0 0 0 4.7.3h2.3a290.1 290.1 0 0 0 45.3-2.9 450 450 0 0 0 34-6l2.2-.4 2.1.8c3.7-1.2 7.3-2.2 8.1-3l5.7-1.2a64.8 64.8 0 0 0 10-1.6c1.4-.4 2.7-.9 4-1.6 4.4 0 1.6.8 4.2 1 6.8-1.3 13.8-2.2 20.7-2.5a29.5 29.5 0 0 0 4 .3 82.7 82.7 0 0 0 8 0l.3-.5h1.8l1.6.1a509.5 509.5 0 0 1 35.2 3.8l17.6 2.3c3.1-1 6.4-1.8 9.9-2.5l10.7-2a135 135 0 0 0 11-3 60.6 60.6 0 0 0 19.3-10.7l.8-.7.7-.6.7-.7.4-.3.3-.4c2-2 3.8-4.3 5.2-6.8l.5-1 .5-.9.4-1 .2-.4.1-.5.6-2 .2-1v-.6l.1-.5c.2-1.3.1-2.7 0-4a26.3 26.3 0 0 0-1.5-5.8l-.6-1.8a23 23 0 0 1-.8-2.4 5.6 5.6 0 0 1-.1-1.9v-.4.2-.1l.2-.3h.1l.2-.2.2-.2 1.2-.8 3-1.5 3.6-1.4 7.7-2.4c5.2-1.5 10.3-3.1 15.3-5.1 2.6-1 5-2.2 7.4-3.5l.9-.6.9-.5 1.7-1.1.9-.6.8-.6 1.6-1.4.8-.6.7-.7.8-.8.3-.4c.2 0 .3-.2.4-.4l2.2-2.6.4-.6 1-1.2a21 21 0 0 0 1.1-2.7 19.5 19.5 0 0 0 .3-14.5l-.6-1.6a16.6 16.6 0 0 0-1.6-2.9l-.9-1.3a37.5 37.5 0 0 0-7-7.3c-2.4-2.5-5.5-4.9-7.8-7.4-1.3-1.5-2.2-3-1.8-4.7.4-1.3 2-2.6 3.7-3.7Z"/>
  <path fill="#FFF3C7" d="M364.7 330.6v-1.8l-.1-1.8-.2-1.9-.3-2c-.5-3-1.3-6-2.4-8.8l-.3-.9-.3-.8-.6-1.6-.4-.9-.3-.8-.8-1.7a72 72 0 0 0-3.6-6.7l-1-1.6-1.1-1.7-.6-.8-.6-.8-1.2-1.6-.6-.8-.7-.8-.6-.8-.4-.4-.3-.4-3-3-1.4-1.4-1.6-1.4-.9-.7-.8-.7-1.7-1.3c-2.2-1.6-4.5-3-6.8-4.4-4.6-2.5-9-4.4-13-6-3.9-1.7-7.5-3-10.6-4.3a122.8 122.8 0 0 1-7.8-3.6l-.8-.4-.7-.4-1.3-.8-.3-.2-.3-.2-.6-.4-.5-.4h-.2l-.1-.2-.3-.2s-.2 0-.2-.2l-.3-.2c-.2 0-.3-.2-.5-.4-.2 0-.3-.2-.5-.4l-.5-.4-.5-.5-.2-.2-.3-.3-1-1.1-.7-6a98 98 0 0 0-3.2-14.4c-1-2.3-1.9-4.5-3-6.2l-.6-1-.6-1-.6-.9-.7-1a54.3 54.3 0 0 0-8.7-9.5 137.6 137.6 0 0 0-8.3-7l-1.3-1.3a194.2 194.2 0 0 0-23.1-18.9 121.6 121.6 0 0 0-26-13.6 152.7 152.7 0 0 0-20.7-7.8 106.6 106.6 0 0 0-25.4-3.7h-7.2l-1.2.1-1.2.1a169.8 169.8 0 0 0-17.7 2l-8 1.2-7.4 1.2a665.1 665.1 0 0 1-18.7 2.6h-1.5l-1.5.1h-2.7l-2.7-.4h-.6l-.6-.2-1.2-.2H96l-.2-.2-.6-.1-.6-.2h-.3l-.3-.2-1.1-.3-.3-.1-.3-.1-.5-.2a23.3 23.3 0 0 1-2.8-1.4l-1.8-1.5a70.7 70.7 0 0 0-2.6-1.9l.6.5.6.4.5.4-.4.4-.4-.3-2.4-1.6-1.4-1-.7-.4-.4-.3-.3-.2-.8-.5-.5-.3c-1-.7-2-1.4-3.2-2l-.9-.6-.4-.2-.5-.3-1-.5-1-.4-2-.9-1.2-.3-1-.3-1.2-.3-1.2-.3-1-.2-1.2-.2a35.6 35.6 0 0 0-12.5.7 52.7 52.7 0 0 0-11.1 3.5l-3.2 1.2-.7.9-.3.6c-.2.3 0 .4.2.4.5 0 1.7-.6 3.4-1.5a72.3 72.3 0 0 1 11-4.6 40 40 0 0 1-13.7 7 66 66 0 0 0-13.6 12.5l-1.3 1.5.5-.7 1.5-2.1a33.5 33.5 0 0 1 5.2-5.6c.8-.7 1.7-1.3 2.6-1.8 1-1.2 1.1-1.8.7-1.7-.5 0-1.7.5-3.3 1.6l-.9.9-.8.9-1 .9-.9.9a121 121 0 0 0-10.7 13A53.4 53.4 0 0 0 9 195v.9L6.7 199a43.9 43.9 0 0 0-1.2 1.8v.2l-.1.7-.3 2a1162.7 1162.7 0 0 0-.3 3l-.5 1-.6 1.2 1.3-1.8a184 184 0 0 0-2.3 8.5l-.7 3.5a59 59 0 0 0-1 10.4l-.1.9v2.5a64.4 64.4 0 0 0 2 15v-2.8 2.9l1 1.6.7 1-.1 1.2c-.1.3-.3 0-.5-.5l-.9-2.3c-.1-.4-.2-.8-.4-1l-.4-.9.3 1.9.3 1.8.8 3.3.9 3 .4 1.5.5 1.3a31.8 31.8 0 0 0 2.9 5.8c.2.4.6.8 1 1.1l-.4-.7-.7-2-.2-.7-.2-.6-.5-1.5-1-3.3-.4-1.7-.4-1.6-.6-3-.1-.7.9.9.5.1 1.3 3c1.7 3.8 3.2 6.7 3.5 8l1.9 5.7 1 2.6.4 1.3.6 1.3 3 6.7a113.3 113.3 0 0 0 6.8 11.9l-.9-.5a128.1 128.1 0 0 1-7.7-10.8 81.8 81.8 0 0 1-3.5-5.9l.5 1.3.7 1.8 1 2 .8 2 1 1.9.8 1.7.5.4 1.1 1 1.2 1 .5.4c1 1.3 1.4 2.1 1.5 2.6v.6l-.3.2.5.5.5 1.1h.4l.3.1 1.1 1.1 2 1.9 1 .8c.2.1.3.1.4 0l.4.8 1.5 2 .7 1.1.8 1 .8 1 .7 1 .8 1 .7 1 1.1 1.6.1.2.1.2.2.3v.2l.1.1v.1l.2.2h.1l.2.9a52.3 52.3 0 0 0 1.1 3.7l.4 1 .8 2.4.2.4.1.3.3.7.6 1.4.7 1.4.7 1.5.3.7.6.9a39.6 39.6 0 0 0 6 7l.8 1a37 37 0 0 0 6.2 4.8l.8.4a61.8 61.8 0 0 0-2.5-6c-1.2-2.5-2.9-5.5-4.5-8.9l-1-2 1 1.6-.4-1-.6-.8v-.1l-.2-.3-.5-1.3-.6-1.3-1-2.8-1-2.5-1.2-4.1-.8-3v-2l-.2-.7a12 12 0 0 0-1-3.2c-.2-.5-.4-.9-.3-1.1 0-.3.2-.4.4-.3a6 6 0 0 1 2.4 1 16.9 16.9 0 0 1 4.6 4.6 15.8 15.8 0 0 0-2.6-6.6l-2.7-3.6-3.5-3.7-1.8-2-.2-.2 1.6 1.5c3.6 3 7.5 5.9 10.4 9.7 2.6 3.5 4.2 7.6 6.2 11.6l.2.4-1.3.1.8 1.4c0 .3.2.5.3.7l.3.6.7 1.2.2.5.3.5.5 1 .5 1 1 1.9 1 1.9a33 33 0 0 0 5 6.8l.2.2c-.2-2.1-2-4.8-3.7-7.9l-.7-1.2-.7-1.2-.7-1.3c12.7 19.4 34 34.2 38.2 56.9 3.5 19.1-6.4 39.1-1.7 58 1.8 7.6 5 14 9 19.4a46.9 46.9 0 0 1-12.1-18.7c-1 1.2-2.1 2.5-3 4.2l-.4.6-.3.7a14.7 14.7 0 0 0-1 5.7v1.3l.1.6v.7l.6 3c0 .2 0 .5.2.8l.2.8a52.6 52.6 0 0 0 2 5.6l.3.5.2.5.6 1 .5 1 .7 1.1a116.3 116.3 0 0 0 1.8 2.8c0 .2.2.4.4.5l.8 1.2c2.7 3.4 5.7 6.5 9.1 9.2A65.5 65.5 0 0 0 123 484a107 107 0 0 0 10.4 4.7l2.8 1 2.9.9 2.9.8 1.4.4 1.5.4h17a282.5 282.5 0 0 0 26.3-2h1.2l2.1.2 2.5-.6 3-.6 5.2-1.2a259 259 0 0 0 13-2.6 250.4 250.4 0 0 0 62.3-18l1.9-1 1.9-.9c1.2-.6 2.5-1.2 3.6-1.9l1.8-1 1.8-1 3.5-2a326.6 326.6 0 0 0 31-22.4l5.6-4.6a174 174 0 0 0 14-12.5l1.2-1.3.6-.6.6-.6 1.1-1.4 1.1-1.3.6-.7.5-.7 1-1.4 1.1-1.5 1-1.5 1-1.6 1-1.5.9-1.6.8-1.6 1.5-3.2.7-1.6.3-.8.3-.9a78 78 0 0 0 2.2-6.4l.4-1.6.5-1.6.2-.8.1-.7.4-1.6 1.2-6.2.2-1.6.2-1.5.2-1.5.2-1.5.2-1.6.1-1.5.2-1.5v-1.6c.6-8 .4-16.2-.8-24.3.9-3.4 1.3-6.8 1.3-10.3ZM88.4 168.5l-.5-.4-.5-.4.3.2.7.6ZM16 185.4Zm10 108.8 1 1.5-1.2-1.5h.3Z"/>
  <path fill="#D6E2E9" d="m127.4 406.3.1-2 .1-1.8-.7 5-.1 1-.2.9-.2 1.7-.4 3a96.6 96.6 0 0 0-.3 3 36.8 36.8 0 0 1-.5-9.9c.2-.5.3-.5.6 0l-.2-1-.3-2.2-.3-2-.1-1v.9l-.2 2.1.1 7 .2 2v.9l.2 1 .2 1.8.3 1.6.1.7.2.7.2 1 .2 1c0-2.2-.3-5.2 0-7.4v-.8a18.7 18.7 0 0 1 .4-2c.2-.5.4-.8.7-.8v-4.4Zm.3 6v-1.5h-.2v1.2l.1 1 .1.8v.7l.1.5.2.4-.2-1.7-.1-1.4Zm.9-3.5v-.5c-.1-.2-.1-.1-.1.2v1.4l.2 2.2.3 3.8c0 .4-.1.6-.3.5l-.4-.4-.3-.6.1.8c.3 1.5.4 2.5.3 3.2 1.9 3.3.5-2.6.4-9.5l-.2-1.1Zm2.8-34.1v-.4l.2-1 .2-.9v-.4c-.2-.3-.4 0-.6.4l-.4.9-.4 1-.3 1h.2c.3-.1.6.3 1 .7.2.3.5.5 1-.2.4-.6.9-2.1 1.4-4.9-.7 2.5-1.6 5.1-2.3 3.8Zm-2.4 2.8.6-.9.4-1v-.3c-.2.2-.6.8-1 2.2Zm2.4 17.2-.4 1.6-.3 1.6-.3 1.4-.3 1.4-.3 2-.1.8c.5-.3.8-1 1-2 .3-1 .5-2.2.6-3.6a30 30 0 0 1 2.2-8.7v-2.4l-.7 2.4c-.4 1.4-1 3.5-1.4 5.5Zm-74.5-132 .3.6.3.6v-.8l-1.2-1.5.6 1Zm-2.2-5.4-.4-1.3-.3-1.2a21.5 21.5 0 0 0-1.6-4.8l-.6-1.4-.3-.7c0-.3-.2-.6-.3-.8l.1.5.3 1.4.5 2 .6 2.2 1.3 4.2.6 1.8 1.7 2.4a39 39 0 0 1-1-2.5l-.6-1.8Z"/>
  <path fill="#D6E2E9" d="m76 287-.8-.8-1.4-1.6-.7-.9-.7-.8-.8-.8-.6-.9a138.7 138.7 0 0 1-13.6-19.7v1.6c1.7 2.2 3 4.1 4.1 6l1.8 2.8.8 1.4 1 1.4c1.3 2.1 2.7 4.2 4.3 6l1.5 1.8 1.7 1.7 2 1.8 1 .9 1.1.9-.4-.4-.3-.4Z"/>
  <path fill="#F5A56D" d="M291.1 222.4c-.2-2.1-3.2-4.9-4.5-6.5a327.3 327.3 0 0 0-21.6-25.4c-10-11-20.4-21.5-31-31.8a1570 1570 0 0 0-16.3-15.4c-2.6-2.5-5.2-5.2-8-7.6l-1.4-1c0-.6-.3-1.1-.8-1.6-1-1-2.8-1-3.8 0L174.1 166l-29.6 32.8-16.7 18.5c-.8.8-1.2 2.3-.5 3.3 10.5 14.1 21 28.2 32 42a481.8 481.8 0 0 0 37.9 42.7c-.5 1-.2 2 .5 3l10 11.5a7.3 7.3 0 0 0 3.8 2.4c.9 1.2 2.3 1.8 3.7 1a2.7 2.7 0 0 0 1.3-2.4c1.1-.9 2-2.1 3-3.3l8.7-12.6c.7 0 1.2-.4 1.7-.8 5.9-5 10.1-11.4 13.5-18.2l16.7-20c9.5-12.7 17.9-26.3 27.3-39.2 1-1.5 4-2.2 3.7-4.2Z"/>
  <path fill="#61C4DF" d="m422 91.3-38-40.9L373.1 39l-.9-.6c-4.4-6.6-8.9-13.2-14-19.4a85.6 85.6 0 0 0-12.4-12.4l-.1-.1c-.1-.4-.3-.8-.7-1-.9-1-2.9-1.2-3.8 0-3.7 4.8-7.6 9.6-11.5 14.4-.6 0-1.2.3-1.6.7-7.6 7.3-13.7 11.4-20.1 19.7-8 9-18 19.3-26 28.3-3.5 3.7-6.2 9.6-10 13a67.4 67.4 0 0 1-5.5 4.6c-1.9 1.3-3.9 2.5-5.4 4.2a8.5 8.5 0 0 0-2.4 6.6c.3 2.6 1.8 4.7 3.6 6.6 3.4 3.4 6.8 6.8 10 10.5l1.4 1.7a2.4 2.4 0 0 0 .2 2.2l16.3 23.4c.3.4.7.8 1.2 1 3.6 4.8 4.8 8.7 9.1 13 5.9 10.6 16.3 17.8 22.7 26.7l9.2 13.4c1 1.5 3 1.7 4.3.5a189.2 189.2 0 0 0 27.8-32l.4-.4a289.3 289.3 0 0 0 35.8-44.3c.3-.5.5-1.1.4-1.7A955.3 955.3 0 0 1 419.7 96a2.8 2.8 0 0 0 2.3-.7 3 3 0 0 0 0-3.9Z"/>
  <path fill="#39B7CC" d="M393.7 89.2 355 48.4c-2.2-5-6-9.4-10.8-12.2l-.7-1c-.8-.9-2.5-1-3.5-.3a3 3 0 0 0-3.2.5 84 84 0 0 0-14.7 16.8 300.2 300.2 0 0 0-15.6 19.5v.9a641.9 641.9 0 0 1-19.2 20.7c-1.6 1.7-.4 4.5 2 4.6a598.7 598.7 0 0 0 102.5-4.1c1.1-.1 2-.6 2.5-1.7a2.7 2.7 0 0 0-.6-2.9Z"/>
  <path fill="#E8975F" d="M265.8 221a317.3 317.3 0 0 1-34.6-37c-3.3-4.1-6.3-8.4-9.6-12.4a42.4 42.4 0 0 0-12.9-11c-1.3-.6-2.9-.3-3.7 1v.2a1281.7 1281.7 0 0 0-38.8 41c-3.7 4-8.4 9.4-11.3 14.1a2.7 2.7 0 0 0 0 2.7c.6 1 1.4 1.2 2.4 1.3a716.3 716.3 0 0 0 106.6 4.8c2.2-.1 3.7-3 2-4.6Z"/>
  <path fill="#B1CB1D" d="M174.5 225.3c0-1.6-1.2-2.7-2.7-2.7l-7.8-.4h-1.2c-.5 0-1 0-1.4.3a49 49 0 0 1-.9-1.3 2.7 2.7 0 0 0-3.6-1c-1.3.8-1.8 2.5-1 3.7 2 3.2 4.4 6.2 7 9a2.7 2.7 0 0 0 3.3.4 37 37 0 0 0 8-6.7c.2-.4.3-.9.3-1.3Zm26.7-1.3a43.6 43.6 0 0 0-13.6 1.6l-3.2-1.9c-1.3-.7-3-.3-3.7 1-.7 1.2-.3 3 1 3.6 1.7 1 3.4 2 5 3.2a2.8 2.8 0 0 0 .7 2.5l1.3 1c1 1 2.1 2 3.3 2.8 2.1 1.3 4 0 5.6-1.5a27 27 0 0 0 6-8.2c.8-1.9-.2-4-2.4-4Zm27.3 1.2a2.8 2.8 0 0 0-2.4-1.7l-.7.1a2 2 0 0 0-1.2.7l-.3.4a28.7 28.7 0 0 0-10 0l-2.1-1.1c-1.3-.7-3-.4-3.7 1-.7 1.1-.4 3 1 3.6 2.2 1.1 4.4 2.5 6.4 4v1.3a3.8 3.8 0 0 0 3.2 2.6 5 5 0 0 0 3.7-.4c.9-.4 1.3-1.3 1.3-2.3l1-1.3 2.2-3c.4-.2.8-.4 1-.7l.5-.5c.2-.4.4-.9.4-1.4v-.3c0-.4-.1-.7-.3-1Zm25.1.4c-.4-1-1.4-1.8-2.5-1.7l-11.1 1.2a5 5 0 0 0-2.8-1.5c-.7 0-1.4 0-2 .3a1 1 0 0 0-.6.5c-1.1-.6-2.4-.6-3.4.3-1 1-1 2.9 0 3.8l5.2 4.3 2.5 2.2c1 .8 1.8 1.7 3 2.2 2.8 1 4.6-1.7 6.3-3.5l4.8-5.2a2.7 2.7 0 0 0 .6-3Zm7.6-.8a2.8 2.8 0 0 0-2.5-1.6h-.7l-1.2.8-.4.5c-.2.4-.4 1-.4 1.4v.3a2.6 2.6 0 0 0 1.7 2.5l1 .2h.7c.5-.2 1-.5 1.2-.8l.5-.5c.2-.4.3-1 .3-1.4v-.3c0-.4 0-.7-.2-1Zm-27 30-.6-.5c-1.2-1.8-3-3.4-4.9-4.4a4 4 0 0 0-5.5 1.3l-.6 1a5.3 5.3 0 0 1-1.5 3c-.4.5-1 .9-1.6 1.1l-1.1 1-.8-.6c-1.3 0-2.4-.4-3.5-1a8 8 0 0 1-2.3-1.8c-.6-.5-1-1.2-1.3-2h-.4c-1.8 0-3.2 1.2-4.4 2.4-.5 0-1 0-1.6.3-1.6.8-3 2-4 3.4l-4.6-3c-2.3-2.7-4.6-5.4-7.8-7.1-1-.7-2.2-1-3-.3-2 1.5-4 3.4-3.7 6 .1 1.5.9 2.6 1.8 3.8l2.6 3 9.8 12c1.2 1.4 4.2.7 4.5-1.2a10.9 10.9 0 0 1 .5-2.2l.2-.4c1.2.7 2.2 1.5 3.6 2 1.4.4 3 .5 4.4.4 3.2-.4 6-1.8 8.7-3.3l.6-.3.2.4 2.6 4c.9 1.3 3 2 4.2.5l6.4-7.6c.7-.8 1.5-1.6 2.1-2.5h1c.9-.1 2-.9 2.1-1.9.4-2.2-.3-4.1-2-5.5Z"/>
  <path fill="#F8CA41" d="m253 228.2-5.3 6.2a23.4 23.4 0 0 1-5.5 3.5h-.3l-.6-.4a24.2 24.2 0 0 1-4.2-3.4 30 30 0 0 1-4.7-5.8c-1-1.6-3.8-1.9-4.7 0a55.9 55.9 0 0 1-4 7l-.6.9-.3.3-.2.2-.2.2h-.3l-.7-.2-1.8-.9a51 51 0 0 1-6.4-3.8 31.5 31.5 0 0 0-5.7-4.6l-.3-.2c-1.3-1.3-3.1-.9-4.2.5v.1c-1.6 1-2.7 2.7-3.7 4.1a46.3 46.3 0 0 0-3.4 5.1 3 3 0 0 0-.4 1.6l-.1.2-.5.4-1.2-.8a63 63 0 0 1-1.7-1.5l-6.8-6.2-3.8-3c-1.3-.9-2.7-1.9-4.2-2.4-2-.5-3.8.2-5.3 1.6l-3.7 3.8a2.5 2.5 0 0 0-.7 2.4 2.9 2.9 0 0 0-.2 3c2.4 4.7 5.2 9.3 8.4 13.6.8 1 2.3 1.8 3.7 1a14202.6 14202.6 0 0 1 6.3-4.1h.1l2.2 1.9c2.8 2.6 5.3 5.6 7.5 8.8 1.1 1.7 3.5 1.8 4.6 0a59 59 0 0 1 6.2-8c2.4 3 5.1 5.9 8 8.4 1.4 1.3 3.2 1 4.2-.5a123.2 123.2 0 0 1 7.6-9.7l.9.8 2.6 2.5 5.3 5.1a2.7 2.7 0 0 0 3.4.4 174.5 174.5 0 0 1 13.4-18.2c2-2 4-4.2 5.6-6.6 1.6-2.5-2.2-5.5-4.3-3.3Zm-33 41.9c-3-3.4-7-.2-9.8 1.7l-2 1.2-.3-.3-4-3.6c-1.1-1-2.8-1.1-3.8 0-.4.4-.7.9-.8 1.4l-.2.2c-1.1.6-1.8 2.5-1 3.6l9 12.4c1.1 1.6 3.6 1.9 4.6 0a31 31 0 0 1 6-7.5c1.3-1.2 2.6-2.3 3.2-4a5.2 5.2 0 0 0-1-5Zm-10.9-122.6c-.1-.5-.4-.9-.7-1.2l-.5-.4c-.4-.3-1-.4-1.4-.4h-.3a2.8 2.8 0 0 0-2.7 2.7v.7c.2.5.4.9.8 1.2l.5.4c.4.3.9.4 1.4.4h.3a2.8 2.8 0 0 0 2.7-2.7v-.7Zm-64.5 71.9a2.7 2.7 0 0 0-4.6-1.9c-.5.5-.9 1.2-1 1.9a4 4 0 0 0 0 2.2 3 3 0 0 0 1.3 1.6 2.7 2.7 0 0 0 4-2.6l.3-1.2Zm72.4 88.3a2 2 0 0 0-.5-.9l-.5-.4c-.4-.2-.9-.3-1.4-.3h-.7c-.4.2-.9.4-1.2.7l-.3.4a2.8 2.8 0 0 0 0 3.8l.5.4c.4.3.9.4 1.4.4l.7-.1c.4-.1.8-.4 1.2-.7l.3-.4a2.6 2.6 0 0 0 .6-2.9Zm64.4-85.4a2 2 0 0 0-.3-1c-.3-.6-1-1-1.6-1.3-.7-.1-1.4 0-2 .3l-.6.4c-.3.4-.6.8-.7 1.2l-.4 1a2 2 0 0 0 0 1.1c0 .4.1.7.3 1 .4.6 1 1 1.6 1.3.7.1 1.5.1 2-.3l.6-.4a47 47 0 0 0 1-2.2 2 2 0 0 0 .1-1.1Zm55.8-41.4c-.5-.5-1.2-.9-1.9-1-.7-.2-1.4-.2-2.1 0a2.7 2.7 0 0 0 .8 5.2c.4.2.9.4 1.3.4a2.7 2.7 0 0 0 2.7-2.7 3 3 0 0 0-.8-2Zm-63.9-85.3a3.1 3.1 0 0 0-1.5-2c-.5-.2-1-.3-1.6-.3-.6 0-1 .1-1.5.4a2.6 2.6 0 0 0-1.3 2.7c0 .3.1.7.3 1 .4.5.9 1 1.5 1.2h.2a3 3 0 0 0 2 .3l.7-.2a2.7 2.7 0 0 0 1.2-3Zm72.3-75.2c0-.4-.3-.8-.6-1.1l-.6-.5a3 3 0 0 0-1.3-.3h-.4a2.8 2.8 0 0 0-2.7 2.7l.1.7c.1.4.4.8.7 1.2l.6.4c.4.2.8.4 1.3.4h.4a2.8 2.8 0 0 0 2.7-2.7l-.2-.8Zm64.9 72.3a2 2 0 0 0-.2-.5c.2-1.3-.6-2.7-2-3-1.3-.4-2.9.4-3.2 1.8a4.8 4.8 0 0 0 .7 4.1 2.7 2.7 0 0 0 5.2-.9c0-.5-.2-1-.5-1.5Zm-28.1 13.1a8 8 0 0 0-2.4-3.2 21 21 0 0 0-6.3-4c-1-.5-2.4-.6-3.2.3a78.1 78.1 0 0 1-15.2 13.4l-1 .5-1.8-2.6-4.3-6.3c-.7-1-1.3-2.2-2.2-3a3.9 3.9 0 0 0-4.5-.8c-1.1.6-2 1.5-2.9 2.3l-2.8 2.5-5.6 5-.5.4-.5-.5a65.7 65.7 0 0 1-7.5-8.5c-1.3-1.7-3.4-1.7-4.7 0-2 2.6-4.1 5-6.4 7.4-1 1-2 2-3.1 2.7l-.6.3a5.4 5.4 0 0 1-.6.2c.3 0-1 .2-.3 0h-.1l-.4-.2c-.6-.5-1.4-.5-2.1-.3l-7.7-10.2c-.9-1.2-2.4-1.8-3.7-1-1.2.7-1.8 2.5-1 3.7 6.3 8.6 12.9 17 19.6 25.1 1.2 1.4 3.4.8 4.3-.5 1.6-2.4 3.6-4.6 5.7-6.5l.8-.7.5-.4h.3a35.4 35.4 0 0 1 6.3 5l-.2 1c0 2 1.2 3.7 3 4.2 1 .2 2 0 2.7-.7l1.9-2.3 2.3-1.4 4.7-2.6.4-.3 1.8 2c1 1.3 2 2.8 3.3 3.7 3.4 2.2 6.2-1 8.3-3.3l6.4-7.1v-.1c.6.2 1.2.5 1.6.9 1 .7 1.7 1.6 2.2 2.7.8 1.3 3.2 1.9 4.3.5 3.4-4.4 7-8.7 10.3-13.2 1-1.2 1.4-2.7.9-4.1ZM354 113c-.3.1-.5 0 0 0Zm-4.5 32.8c-1-2.2-3.3-3.7-5.6-2.6-1.7.7-3.2 1.7-4.8 2.5l-.5-.5-2.8-2.8a3 3 0 0 0-2.7-.7l-.3.2a2.5 2.5 0 0 0-2 .8l-1.9 2.1c-.7.9-1.7 1.8-2 3-.7 2.3 1.2 4.4 2.6 6 1.2 1.5 2.5 2.8 3.9 4 1.6 1.4 3.7 3.3 6 2.6 1.1-.4 2-1.3 2.8-2l2.5-2.3c1.4-1.4 3-2.8 4.2-4.5a7 7 0 0 0 .6-5.8Z"/>
  <path fill="#B58CBF" d="M319.3 98.6c-.1-.4-.3-.8-.7-1.1l-.5-.5c-.4-.2-.9-.3-1.4-.3h-.3a2 2 0 0 0-1 .2 2 2 0 0 0-.8.4 153.6 153.6 0 0 1-12.2.4c-.7 0-1.3.3-1.8.8l-.7-.6c-1.2-.8-2.7-1-3.8 0-1 1-1.2 3 0 3.9l5 3.8 2.4 2 1 .6c0 1.3.9 2.5 2.3 2.7a3 3 0 0 0 3.2-2l2-2.1 4-4.8h.7c.4 0 .7 0 1-.2a2.4 2.4 0 0 0 1.5-1.4l.2-1v-.8Zm-30.9 3.8a2.7 2.7 0 1 0 0-5.4 2.7 2.7 0 0 0 0 5.4Zm52.6-3c-.5-.9-1.5-1.7-2.5-1.6a603.5 603.5 0 0 1-13 1.2l-.3-.3c-1-1.1-2.8-1-3.8 0s-1 2.7 0 3.8l6.5 7c.7 1 2.3 1.1 3.2.5 3.4-2.2 6.7-4.5 9.3-7.6.7-.9 1-1.9.5-3Zm24-2.7c-4.3 1.5-8.8 2-13.1 1.3h-1.4c-.9-1-2.2-1.4-3.4-.7-1.2.7-1.9 2.5-1 3.7l6.5 8.7c1 1.5 2.8 1.8 4.2.5l10.7-9c2-1.7-.1-5.4-2.6-4.5Zm29.4-2.6a2.7 2.7 0 0 0-3-1.2l-10.4 3c-.3 0-.4.2-.6.3l-.8-.7c-1-1-2.7-1-3.8 0-1 1-1 2.9 0 3.8l4.3 3.7c1.6 1.5 3.4 3.2 5.8 2.6 1.8-.5 3-2.5 4.3-3.8l3.8-4.4c.8-1 1-2.2.4-3.3ZM368.9 123c-1-.8-2-.9-3.1-.4a5 5 0 0 0-2.9-1 4 4 0 0 0-.6-.2c-1.2-.1-2.4.1-3 1.3-1.8 1-3.2 2.8-4.6 4l-3 3-1.4 1.3-.5.5-.3-.2-1.5-1.4-3.3-3.1a2.9 2.9 0 0 0-3.3-.5l-5 3.4a997.1 997.1 0 0 1-3.6 2.4l-.6-.5c-.2 0-.7-.5-1-.7l-2.3-2-4.4-3.8c-.3-1.9-2.8-3.3-4.5-1.6l-5 5c-.8 1-1.6 1.9-1.8 3.1-.2 1.6.6 2.8 1.6 3.9l4.8 5 2.2 2.2c1 1 1.8 2.2 3.1 2.6 2.6.8 4.3-1 5.1-3.1l.3-.6v-.2h.1l.3-.1h1a4.6 4.6 0 0 1 .9.2l.4.1.2.2.7.3 1.4.8c2 1 4.3 1.8 6.6 1.2 1-.2 2-.8 3-1.4l1.3-.8.4-.3.2-.2h.2l.3-.1h.6c-.5 0 .2.2.3.2v.1h.1l.3.3v.3c0 .1.2.7.2.2 0 1 .6 2 1.6 2.4 1 .4 2.2.3 3-.5 3.5-3.8 7.1-7.4 10.5-11.3 1-1.2 2-2.5 2.5-4l2.5-2.1c1.1-1 1-2.9 0-3.8Zm-38.6 18.5v-.1Z"/>
  <path fill="#B58CBF" d="M330.3 141.5v.1c-.1.4.1-.3 0 0Z"/>
  <path fill="#E8975F" d="M137.4 252.3a2.8 2.8 0 0 0-2.5-1.7l-.7.1c-.5.1-.9.4-1.2.7l-.4.5c-.3.5-.4 1-.4 1.4v.4c0 .3 0 .7.2 1a2.8 2.8 0 0 0 2.5 1.7l.7-.1c.5-.2.9-.4 1.2-.7l.4-.6c.3-.4.4-.9.4-1.3v-.4c0-.4 0-.7-.2-1Zm71.4 92.8-.7-1.1-.6-.5a3 3 0 0 0-1.3-.3h-.2a2.8 2.8 0 0 0-2.7 2.7v.7c.2.4.4.8.8 1.2l.5.4c.4.2.9.4 1.4.4h.2a2.8 2.8 0 0 0 2.7-2.7l-.1-.8Zm8.5 5.2c-.1-.4-.4-.8-.7-1.2l-.6-.4c-.4-.2-.8-.3-1.3-.3h-.4a2.8 2.8 0 0 0-2.7 2.6l.1.8c.1.4.4.8.7 1.2l.5.4 1.4.3h.4a2.8 2.8 0 0 0 2.7-2.7l-.1-.7Zm70.5-94.9a2 2 0 0 0-.7-1.2l-.5-.5c-.4-.2-1-.3-1.4-.3h-.2a2.8 2.8 0 0 0-2.7 2.7l.1.7.7 1.2.6.4c.4.2.8.4 1.3.4h.2a2.8 2.8 0 0 0 2.7-2.7v-.7Zm10.1-3.4a2.8 2.8 0 0 0-2.5-1.6l-.7.1c-.5.1-.9.4-1.2.7l-.4.5c-.3.5-.4 1-.4 1.4v.2a2.6 2.6 0 0 0 1.7 2.5l1 .2.7-.1c.5-.1.9-.4 1.2-.7l.4-.5c.3-.5.4-1 .4-1.4v-.2c0-.4 0-.7-.2-1Z"/>
  <path fill="#39B7CC" d="M263.5 131.6a2.7 2.7 0 1 0 0-5.4 2.7 2.7 0 0 0 0 5.4Zm-7.4-6.5a2.8 2.8 0 0 0-2.4-1.7l-.7.1c-.5.2-.9.4-1.2.7l-.4.6c-.3.4-.4.9-.4 1.3v.3a2.6 2.6 0 0 0 1.6 2.5l1 .2h.8l1.2-.8.4-.5c.2-.4.4-1 .4-1.4v-.3c0-.3 0-.7-.3-1Zm79.1 101.7a2.7 2.7 0 1 0 0-5.4 2.7 2.7 0 0 0 0 5.4Zm7.5-4.5a2.7 2.7 0 1 0 0-5.4 2.7 2.7 0 0 0 0 5.4Zm74.2-96.6a2 2 0 0 0-.6-1l-.5-.3c-.5-.3-1-.4-1.4-.4l-.7.1c-.5.1-.9.4-1.2.7l-.3.3a2.8 2.8 0 0 0 0 3.8l.6.4c.4.2.8.4 1.3.4l.7-.1c.5-.2.9-.4 1.2-.7l.3-.3a2.6 2.6 0 0 0 .6-3Zm8.4.3a2.7 2.7 0 1 0 0-5.3 2.7 2.7 0 0 0 0 5.3Z"/>
  <path fill="#23201F" d="M143.8 215c-.2-.3-.5-.4-.8-.5-.3-.1-.7-.2-1-.1-2.6.6-5 2.5-5.6 5.1-.4 2.5.8 5.2 3.2 6 2.5 1 5.3-.6 6.4-3 1.1-2.6 0-5.7-2.2-7.6Zm-.4 6c-.3 1.3-1.7 2.4-3 1.8-1-.5-1.4-2-1-3 .4-1.2 1.5-2 2.8-2.4 1 1 1.6 2.3 1.2 3.7Zm137.2-2.4c-.3-.6-1-.8-1.6-.7-2.9.4-5.3 2.3-5.2 5.5.1 2.6 2.1 4.9 4.9 4.8 2.6 0 5-2 5.1-4.8 0-2-1.3-4-3.2-4.8Zm.3 5c0 1-1.4 1.8-2.4 1.7-1.2 0-1.8-1-1.8-2.2 0-1.1.7-1.7 1.6-2h.2c1.3 0 2.6 1 2.4 2.4Z"/>
  <path fill="#23201F" d="M300.3 257c-.6-.6-1.2-1.2-1.9-1.6a3.3 3.3 0 0 0 .3-3.6 3.8 3.8 0 0 0-3.5-2l-4.9-9a38.9 38.9 0 0 0-4.7-7.3l7.4-10.9c.6-.8.1-1.6-.5-2l-.2-.1-67-72.2-19-20.4c-.8-.8-1.9-.4-2.4.3a1.3 1.3 0 0 0-.9.5 1787.6 1787.6 0 0 1-78.4 89.2c-.7.7-.5 1.6 0 2.2l9.3 12.2a185 185 0 0 0-9.3 13.8c-1.5-.3-3.1.2-4 1.7a3.1 3.1 0 0 0 .2 3.4 8.9 8.9 0 0 0-2.7 2.3c-1.3 1.3.7 3.4 2 2l.9-.9-.2 2.3c0 .7.7 1.4 1.4 1.4.9 0 1.4-.7 1.5-1.4l.1-3v-1.2c1.3 0 2.6-.5 3.3-1.7a3 3 0 0 0 0-3.3c2.2-3.8 4.7-7.6 7.3-11.2 0 1.8-.2 3.6-.3 5.3l-.5 8a4 4 0 0 0-2.7 3.5 4 4 0 0 0 2.4 3.8c-.4.7-.8 1.5-1 2.3-.6 1.8 2.2 2.5 2.7.8l.3-.7 1 1.3c1.3 1.4 3.3-.6 2.1-2l-1.4-2a4 4 0 0 0 1.6-2.9c.2-1.6-.8-3-2.1-3.6l.5-8.9.2-4.7a1430.7 1430.7 0 0 0 74 88.4l-1 1.5-2 4.9a83.6 83.6 0 0 0-3.3 10 4.8 4.8 0 0 0-3.8 4.2 4 4 0 0 0 1 3.3 5.6 5.6 0 0 0-3.1 4.3c-.1.8.2 1.5 1 1.8.7.2 1.7-.3 1.8-1a3.2 3.2 0 0 1 1.3-2.3c.3 1.3.6 2.7.7 4 .1 1.9 3 2 2.8 0a32 32 0 0 0-.8-5.3c2 0 3.9-1.3 4.3-3.5.3-2-.6-4-2.3-5a83.3 83.3 0 0 1 4.4-12.8l.4-.9a3253.9 3253.9 0 0 1 .5 14.9v2.9a1.5 1.5 0 0 0-.8 1l-.4.1a4.6 4.6 0 0 0-1.2 7c.3.4.6.7 1 .9a39 39 0 0 0-1.8 4.1c-.7 1.7 2.1 2.5 2.8.8l1.1-2.7 1.2 2.3c1 1.6 3.4.1 2.5-1.5l-1.5-2.8c.8-.4 1.5-1 2-1.7a5 5 0 0 0 .1-4.7 4.3 4.3 0 0 0-2.1-2.1c.2-1.1 0-2.4 0-3.4l-.2-6.1c0-2.9-.2-5.8-.3-8.6 4.7 7 8.8 14.4 9 23 0 8.6-4 16.7-8.3 24-4.8 8-10.3 15.4-14 23.9-4 9-6.4 19-5.4 29 .8 8.7 4 17.2 9.8 24 3 3.5 6.7 6.1 10.6 8.6 4 2.4 8.1 4.8 11.3 8.3a31 31 0 0 1 7.4 22.6c-.8 9-6.4 16.3-11.7 23.1-2.8 3.5-5.6 7-7.9 11a49.6 49.6 0 0 0-2.4 46c.8 1.6 3.3.2 2.6-1.5a47.2 47.2 0 0 1 .7-40.1c2-4 4.6-7.7 7.4-11.3 5.4-7 11.4-14 13.4-22.7a33 33 0 0 0-11.8-33c-3.8-3-8.3-5.1-12.2-8a37.5 37.5 0 0 1-13.6-22.2c-2-9.6-.6-19.7 2.8-28.8 3.3-8.9 8.7-16.6 13.7-24.6 4.5-7.3 9-15 10-23.7a39.5 39.5 0 0 0-7.1-26.4 146 146 0 0 0-3.7-5.5 1202.1 1202.1 0 0 0 66.6-86.7c0 5 .4 9.9 1 14.8a3.7 3.7 0 0 0-2.5 4 4 4 0 0 0 2.9 3.2c-.6 1-1 2.2-1.3 3.4-.5 1.8 2.3 2.6 2.7.8l.7-2 1.3 1.6c.5.6 1.5.5 2 0 .6-.6.5-1.5 0-2l-1.9-2.3a4 4 0 0 0 2-3.6c-.2-1.7-1.5-3.2-3-3.3a171 171 0 0 1-1-14l2.4 4.2 4.4 8.4a4.1 4.1 0 0 0-.2 4.4 3.5 3.5 0 0 0 2.5 1.7v.2c-.2 1-.2 2-.1 3 0 1.8 3 1.8 2.8 0v-2l.9.8c1.2 1.4 3.2-.7 2-2Zm-175.6-7.5-.1.1c-.4.2-.9.3-1.3.1-.2-.1-.4-.3-.1-.6.2-.2.5-.2.8-.2.2.3.4.5.7.6Zm81 98.1c-.9 0-1.7-.5-1.8-1.4 0-1 1-2 2-2 1.8.6 1.8 3.6-.3 3.4Zm.6-201.5c2 .5 2 3.9-.4 3.7-1 0-2-.7-1.9-1.7.1-1.2 1.2-2 2.3-2Zm-10.8 76.7a195 195 0 0 1-20.2-.9c-6.7-.7-13.4-2-19.8-4.3l40.2-44.4 9.8-10.9c.7 16.7.5 33.3.3 50v10.6h-10.3Zm7.1 3-7.8 11.8c-5.3-3.7-10.3-7.8-15-12.4a227.1 227.1 0 0 0 22.8.6Zm-28.8-1.2-8.9 7.6a2801 2801 0 0 0-9.6-11.6c6 2.1 12.2 3.3 18.5 4Zm2.8 1.4a116 116 0 0 0 17.9 14.9c.7.4 1.6 0 2-.5l8.7-13.3.5.4c0 7.4 0 14.8.2 22.3l-4.7 5.1-1.1 1.3-.8.8a81.3 81.3 0 0 1-11.7-12c-.5-.6-1.5-.4-2 0l-6 5.3-12.8-15.8 9.8-8.5Zm9.8 22.2c3 3.7 6.4 7 10 10.1 1 .8 2 1.7 3.2 1.6 1.3-.1 2.1-1.2 2.9-2l3.5-4c.2 5.3.4 10.5.8 15.7l-4.9-2.6c-.5-.3-1.3-.2-1.7.3a19.2 19.2 0 0 0-3.3 4.6 2764 2764 0 0 0-15.4-19.4l5-4.3Zm15.2 21.9 4.5 2.4.9.4c.3 4.5.8 9 1.3 13.4l-9.4-12c.7-1.5 1.6-3 2.7-4.2Zm-67-15.5c-1.1-.2-1-1.6 0-2l.3.1c1.2.1 1 2-.2 1.9Zm44.4 29.2a1418.4 1418.4 0 0 1-51.4-64.7 1780.4 1780.4 0 0 0 75.9-86.2l1.1 10.3v.2a5.2 5.2 0 0 0-3.4 4.6c-.2 2.4 1.7 4.1 3.8 4.6l.3 5.7-42.1 46.5-12 13.3c-.6.6-.6 1.4 0 2a2682.9 2682.9 0 0 1 57.8 71.7c.6 4.5 1.3 8.9 2.1 13.3a5.8 5.8 0 0 0-2 4.8 5 5 0 0 0 3.3 4.3l.9 8.7c-11.7-12.8-23-25.9-34.3-39.1Zm38.1-60.9h-8.5l.3-37.3c0-8-.2-16-.5-23.9l.4.3a132.8 132.8 0 0 1 16.6 16.5c8.2 9.5 15.6 19.7 23.6 29.4 4.2 5.2 8.5 10.2 13.2 15l-.4.5c-.2-.2-.5-.4-.9-.3l-43.8-.2Zm43 3-.7 1.2-1-1.1h1.7ZM221 269.7c-.7-.8-1.3-1.8-2.1-2.4-1.9-1.5-4 0-5.7 1l-2.9 1.5c-.2.1-.3.3-.5.3-.4-5.4-.7-10.8-.8-16.2l5.2 4.6c1.2 1 2.5 1.4 3.9.5.6-.4 1.1-1 1.7-1.6l2-2 3.6-3.9 1-1 .4-.4h.1l.5.4 1 .9 7.6 6.8c-4.1 4.9-8.4 9.6-12.7 14.3l-.2-.3-2.1-2.5Zm.4 4.8-2.1 2.2c-3 3-6 6-8 9.7-.5-4.4-1-8.8-1.3-13.2l1.6-.8 2.7-1.4 1.6-.9 1.1-.6c.3 0 .7.7.9.9l1 1.2 2.1 2.6.4.3Zm9.1-25c-1-1-2.2-2.4-3.8-2.3-1.7 0-2.8 1.7-3.9 2.8l-3.6 3.9-1.9 1.9-.7.8h-.1l-.2-.1c-.7-.4-1.2-1-1.8-1.6l-2-1.8-3.6-3.1a697.8 697.8 0 0 1-.2-19.9l2.4 2.2 3.7 3.3c1.1 1 2.2 2.1 3.5 2.9 3 1.8 5-1.7 6.5-3.8l4.7-6.3 6 6.4 3.5 3.6c1 1 2.2 1.9 3.7 1.5 1.4-.4 2.5-1.7 3.5-2.7l3.7-3.4 6.4-6 1.5 1.9a373 373 0 0 1-20 26.3l-7.3-6.5Zm-21.8-23.2v-.4h19.1l-4.7 6.3-2.4 3.2c-.3.3-.5.7-.8.7-.5 0-1.2-1-1.5-1.2l-9.7-8.6Zm22.4-.4h5l17.8.1-5.2 5-3.2 3c-1 .9-2 2.2-3.2 2.9-.4.2-.5.2-.9-.1L240 235l-3.2-3.3-5.7-6Zm-17.7 81.3a1.3 1.3 0 0 0 1 .5c1.2 0 2 1 2 2.1.2 1.3-1 2-2.1 2-1.2-.1-2.2-.8-2.3-2a2.9 2.9 0 0 1 1.4-2.6Zm2.4 44c0 1-.8 1.8-1.8 1.7-1 0-1.6-.9-1.5-1.8.2-1 1.1-1.4 2-1.8.7.3 1.3.8 1.3 1.9Zm70.5-96c.4-.1.5.8.4 1-.1.6-.8 1-1.4.9-.5 0-1-.4-1.2-.9-.1-.6.4-1 1-.9a1.3 1.3 0 0 0 1.2 0Zm-55 46.3L215.9 320l-.6-5.6c2.3-.5 4-2.3 4-4.7-.2-2.5-2.1-4.8-4.6-5a1.3 1.3 0 0 0-.9-.7 255 255 0 0 1-2-12.2c1.5-5 5.3-9 9-12.6a386.6 386.6 0 0 0 44.5-55.8 1.5 1.5 0 0 0-.2-1.8c-8-8-15-16.8-22-25.7-6.9-8.8-13.7-17.7-21.5-25.8a137.5 137.5 0 0 0-10.3-9.7l-1.7-1.4-.3-.3c.1-.7-.4-1.4-1.1-1.7l-.3-4.7a4.4 4.4 0 0 0 2.7-3.7c.2-2.1-1-4.4-3-5.2v-.2l-1.3-10.8 64.9 69.8 18.5 19.9a1217 1217 0 0 1-58.5 79.3Zm64.4-47.3c-.8.3-1.2-.5-1-1.2.2 0 .4 0 .6-.2.2 0 .8.2 1 .5.1.4-.2.7-.6.9ZM402.8 95.8c1 2.3 3.8 4 6.3 3 2.4-.9 3.6-3.6 3.2-6-.5-2.7-3-4.6-5.6-5.2-.3 0-.7 0-1 .2-.3 0-.6.1-.8.3-2.1 1.9-3.3 5-2.1 7.7Zm3.7-5.2c1.3.4 2.5 1.2 2.9 2.5.3 1-.1 2.4-1.1 3-1.3.5-2.7-.6-3-1.8-.4-1.4.3-2.8 1.2-3.7Zm-141.6 6c0 2.7 2.5 4.7 5.1 4.8 2.8 0 4.8-2.2 4.9-4.8.1-3.2-2.3-5-5.2-5.5-.6 0-1.3.1-1.6.7a5.4 5.4 0 0 0-3.2 4.8Zm5.3-2.3h.2c.9.3 1.6.9 1.6 2 0 1.2-.6 2.2-1.8 2.2-1 .1-2.3-.6-2.4-1.8-.2-1.3 1.1-2.5 2.4-2.4Z"/>
  <path fill="#23201F" d="M430.7 126.7c-.7-.7-1.7-1.7-2.8-2.3a3.1 3.1 0 0 0 .2-3.4c-.9-1.5-2.4-2-4-1.7a187 187 0 0 0-9.2-13.8l9.2-12.2c.5-.6.7-1.4 0-2.1a1821.6 1821.6 0 0 1-78.8-89.6l-.5-.2c-.5-.7-1.6-1.1-2.3-.3l-19 20.4-67.1 72.2-.2.1c-.6.4-1 1.2-.5 2l7.4 10.9c-2 2.2-3.3 4.7-4.7 7.3l-4.9 9a3.8 3.8 0 0 0-3.5 2 3.3 3.3 0 0 0 .3 3.6c-.7.4-1.3 1-1.9 1.6-1.2 1.3.8 3.4 2 2l.9-.8v2c-.1 1.8 2.8 1.8 2.9 0 0-1 0-2-.2-3v-.2a3.5 3.5 0 0 0 2.5-1.7 4.1 4.1 0 0 0-.2-4.4l4.4-8.4 2.4-4.2c0 4.7-.4 9.3-1 14-1.5.2-2.8 1.6-3 3.3a4 4 0 0 0 2 3.6l-1.9 2.3c-.5.6-.6 1.4 0 2 .5.5 1.6.6 2 0l1.3-1.5.7 2c.4 1.7 3.2 1 2.8-.8a21 21 0 0 0-1.3-3.5 4 4 0 0 0 2.9-3.2c.2-1.8-1-3.5-2.5-4 .5-5 .8-9.9 1-14.8a1228.3 1228.3 0 0 0 66.5 86.7 164 164 0 0 0-3.7 5.5c-5 8-8.5 16.8-7.2 26.4a61.7 61.7 0 0 0 10.1 23.7c5 8 10.4 15.7 13.7 24.6a51.6 51.6 0 0 1 2.8 28.8 37.5 37.5 0 0 1-13.6 22.2c-3.9 3-8.3 5-12.2 8a33 33 0 0 0-11.8 33c2 8.8 8 15.8 13.4 22.7 2.8 3.6 5.4 7.3 7.4 11.3a46.7 46.7 0 0 1 1.4 38.6c-4.7 9.2-10 20.5-4.2 30.5 4.1 7 13.5 11.8 12.7 21-.5 5.7-3.8 10.7-5 16.2-.5 1.8 2.3 2.6 2.7.8 1.2-5 3.8-9.5 4.8-14.4 1-4.6.1-9-2.5-12.7-2.4-3.5-5.6-6.3-8.3-9.6a18 18 0 0 1-4-13 40.8 40.8 0 0 1 5.7-15.8 49.7 49.7 0 0 0-2.4-46c-2.3-4-5-7.4-7.8-11-5.4-6.8-11-14-11.7-23a30 30 0 0 1 7.3-22.6c3.2-3.6 7.3-6 11.3-8.4a40.4 40.4 0 0 0 20.5-32.6 59 59 0 0 0-5.4-29c-3.8-8.5-9.3-16-14-23.9a47.1 47.1 0 0 1-8.3-24c.1-8.6 4.3-16 8.9-23a4892.5 4892.5 0 0 0-.4 14.7c0 1-.2 2.3 0 3.4-1 .5-1.8 1.2-2.2 2.2a5 5 0 0 0 .2 4.6c.4.8 1.1 1.4 2 1.7l-1.6 2.8c-.9 1.7 1.6 3.1 2.5 1.5l1.2-2.2c.5.8.8 1.7 1.2 2.6.6 1.7 3.4 1 2.8-.8a39 39 0 0 0-1.9-4 4 4 0 0 0 1-1 4.6 4.6 0 0 0-1.5-7.1 1.5 1.5 0 0 0-.9-1v-2.9a2116.3 2116.3 0 0 1 .5-14.9l.4 1a80 80 0 0 1 4.5 12.7 5 5 0 0 0-2.3 5c.3 2.2 2.2 3.5 4.3 3.5-.5 1.8-.8 3.6-.9 5.4-.1 1.8 2.7 1.8 2.9 0 0-1.4.3-2.8.6-4.1a3.2 3.2 0 0 1 1.4 2.3c0 .7 1 1.2 1.8 1 .8-.3 1-1 1-1.8a5.9 5.9 0 0 0-3.2-4.3 4 4 0 0 0 1-3.3 4.8 4.8 0 0 0-3.8-4.1c-.8-3.5-2-6.8-3.2-10-.7-1.7-1.3-3.4-2.1-5l-1-1.4a1471.6 1471.6 0 0 0 74-88.5l.2 4.8.6 8.8c-1.4.7-2.3 2-2.2 3.7a4 4 0 0 0 1.7 2.7l-1.5 2c-1.2 1.5.8 3.5 2 2.1l1.1-1.3.3.7c.5 1.7 3.3 1 2.7-.8a9 9 0 0 0-1-2.3 4 4 0 0 0 2.4-3.8 4 4 0 0 0-2.7-3.4l-.5-8-.3-5.4c2.6 3.6 5 7.4 7.4 11.2a3 3 0 0 0-.1 3.3c.7 1.2 2 1.7 3.3 1.7v1.2l.1 3c.1.7.6 1.4 1.5 1.4.7 0 1.5-.7 1.4-1.4l-.1-2.2.8.8c1.3 1.4 3.3-.6 2-2Zm-177.6.6c-.4-.2-.7-.5-.5-.9.1-.3.7-.6 1-.5l.5.2c.2.7-.2 1.5-1 1.2Zm89.6 90.2c1-.2 2.1 1 2 2 0 .8-.8 1.3-1.6 1.3-2 .2-2.1-2.8-.4-3.3Zm2-196.2c0 1-1 1.6-2 1.7-2.3.2-2.2-3.2-.3-3.7 1.2 0 2.2.8 2.3 2Zm3.8 119.2c-.4-.5-1.2-.6-1.8-.3-1.5.9-3.1 1.8-4.8 2.6.4-5.2.6-10.4.8-15.7l3.5 4c.8.8 1.6 1.9 2.9 2 1.3 0 2.2-.8 3.2-1.6 3.6-3 7-6.4 10-10.1l5 4.3a940 940 0 0 0-15.5 19.4 21 21 0 0 0-3.3-4.6Zm1.3 7-9.4 12c.6-4.5 1-9 1.3-13.4l.9-.4 4.5-2.4c1.1 1.3 2 2.7 2.7 4.3Zm13.3-29.2c-.5-.5-1.5-.6-2 0a75.2 75.2 0 0 1-10.6 11l-1.1 1-.8-.9-1.1-1.2-4.7-5.2c.2-7.4.2-14.9.2-22.3l.5-.4 8.7 13.3c.4.6 1.3 1 2 .5a121 121 0 0 0 17.9-14.9l9.8 8.5-12.8 15.8-6-5.2Zm-17-19.3 10-.1c4.3 0 8.5-.2 12.7-.5-4.6 4.6-9.6 8.7-15 12.4L346.2 99Zm28.8-1.2c6.3-.7 12.5-1.9 18.5-4l-9.6 11.6-8.9-7.6Zm-1.5-2.7c-6.7.7-13.5.9-20.2 1H343l-.1-10.6c-.2-16.7-.4-33.3.3-50l9.8 11 40.2 44.3c-6.4 2.3-13 3.6-19.8 4.3Zm-108.7 34.2c-.1.5-.7.8-1.2.9-.6 0-1.3-.3-1.4-1 0-.1 0-1 .4-.8a1.4 1.4 0 0 0 1.2 0c.6 0 1.1.3 1 1Zm68.1 63.9A1182.4 1182.4 0 0 1 259 95.3l18.5-20 64.9-69.7a19674.3 19674.3 0 0 1-1.2 11c-2 .8-3.3 3-3.1 5.2a4.4 4.4 0 0 0 2.7 3.7l-.3 4.7c-.7.3-1.2 1-1 1.7l-.4.3a102 102 0 0 0-12 11.1c-7.8 8.1-14.6 17-21.5 25.8-7 8.9-14 17.8-22 25.7a1.5 1.5 0 0 0-.2 1.8 388.6 388.6 0 0 0 44.6 55.8c3.6 3.7 7.4 7.5 8.8 12.6-.5 4.1-1.2 8.2-2 12.2a1.3 1.3 0 0 0-.8.7 5.2 5.2 0 0 0-4.5 5 4.6 4.6 0 0 0 3.9 4.7l-.6 5.6Zm5.7-50.3-3-1.5c-1.7-1-3.7-2.5-5.6-1-.8.6-1.4 1.6-2 2.4a1627 1627 0 0 1-2.4 2.8 362 362 0 0 1-12.7-14.3l7.6-6.8 1-.9.5-.4c.2 0 .5.3.6.4l1 1 3.6 3.9 2 2c.5.6 1 1.2 1.6 1.6 1.4.9 2.7.4 4-.5l5.1-4.6c-.1 5.5-.4 10.9-.8 16.2l-.5-.3Zm.3 3.4c-.3 4.4-.7 8.8-1.3 13.2a43 43 0 0 0-8-9.6l-2-2.3.3-.3 2.2-2.6 1-1.2c.1-.2.5-.8.8-.9.2 0 .9.5 1.1.7l1.6.8a733.2 733.2 0 0 0 4.3 2.2Zm-2.5-20-2 1.7c-.6.5-1.1 1.2-1.8 1.6l-.2.2-.8-.9-1.9-2-3.6-3.8c-1-1-2.2-2.7-3.9-2.8-1.6-.1-2.8 1.3-3.8 2.3L311 129a373 373 0 0 1-20-26.3l1.5-2 6.4 6 3.7 3.5c1 1 2 2.3 3.5 2.7 1.5.4 2.7-.5 3.7-1.5l3.5-3.6 6-6.4 4.7 6.3c1.6 2.1 3.5 5.6 6.5 3.8 1.3-.8 2.4-2 3.5-3l3.7-3.2 2.4-2.2a933.5 933.5 0 0 1-.2 19.9l-3.6 3.1ZM295 99h22.8l-5.8 6-3.2 3.3-1.4 1.6c-.4.3-.5.3-.9.1-1.1-.7-2.2-2-3.2-3l-3.2-3-5.2-4.9Zm26 0 19.2-.1v.4l-9.7 8.6c-.3.3-1 1.1-1.4 1.2-.4 0-.6-.4-.9-.7l-2.4-3.2L321 99Zm19-40.4c-.1 12.5.1 25 .2 37.4h-8.5l-43.8.1c-.3 0-.7.2-1 .4l-.3-.6c4.7-4.7 9-9.7 13.2-14.9 8-9.7 15.4-19.9 23.6-29.4A154.2 154.2 0 0 1 340 35.2l.4-.3c-.3 8-.4 15.9-.5 23.8ZM290.4 99l-1 1.2-.7-1.2h1.7Zm46.5 83.8c-.1 1.2-1.1 1.9-2.3 2-1.1 0-2.2-.7-2.1-2 0-1 .8-2 2-2a1.3 1.3 0 0 0 1-.6 3 3 0 0 1 1.4 2.6Zm-.5 41.3c.1 1-.5 1.7-1.4 1.8-1.1 0-2-.7-2-1.7s.7-1.6 1.5-1.9c.8.4 1.7.7 1.9 1.8Zm77.8-96.4c-1.2.2-1.5-1.8-.3-1.9h.4c.8.3 1 1.7-.1 1.9Zm-11-12a1422 1422 0 0 1-67.7 80.3l.9-8.7a5 5 0 0 0 3.3-4.3 5.8 5.8 0 0 0-2-4.8 261 261 0 0 0 2.1-13.3 2677.6 2677.6 0 0 1 57.8-71.7c.6-.6.6-1.4 0-2l-12-13.3-42.1-46.5c0-2 .2-3.8.3-5.7 2.2-.5 4-2.3 3.9-4.6-.2-2-1.6-4-3.6-4.6v-.2L345.3 6a1837.4 1837.4 0 0 0 75.9 86.2l-18 23.5Zm22.3 7.1c-.4.2-.9 0-1.3 0l-.1-.2.7-.5c.3-.1.6-.1.8.1.3.3.1.5-.1.6Z"/>
</svg>
