<svg width="394" height="432" viewBox="0 0 394 432" fill="none" xmlns="http://www.w3.org/2000/svg">
<path d="M174.498 180C94.6402 180 26.5399 299.374 0 431H349C322.456 299.374 254.355 180 174.498 180Z" fill="black"/>
<path d="M174.476 201.728C101.936 201.728 40.0763 310.844 15.9683 431.16H332.988C308.876 310.844 247.016 201.728 174.476 201.728Z" fill="#FEC672"/>
<mask id="path-3-outside-1_6037_7795" maskUnits="userSpaceOnUse" x="38.231" y="0.836426" width="316" height="300" fill="black">
<rect fill="white" x="38.231" y="0.836426" width="316" height="300"/>
<path d="M278.876 288.716C334.976 267.856 357.3 214.516 331.356 148.316C334.864 132.916 352.02 52.6199 332.856 34.4039C317.048 19.3839 276.856 48.3639 257.356 64.1439C242.013 56.2011 225.266 51.3287 208.056 49.7999C190.817 48.6674 173.523 50.9121 157.144 56.4079C140.288 37.8279 105.008 3.03194 87.0885 15.4559C65.3565 30.5199 70.0165 112.5 71.1245 128.256C38.8445 183.708 46.9965 234.816 87.2605 265.732"/>
</mask>
<path d="M278.876 288.716C334.976 267.856 357.3 214.516 331.356 148.316C334.864 132.916 352.02 52.6199 332.856 34.4039C317.048 19.3839 276.856 48.3639 257.356 64.1439C242.013 56.2011 225.266 51.3287 208.056 49.7999C190.817 48.6674 173.523 50.9121 157.144 56.4079C140.288 37.8279 105.008 3.03194 87.0885 15.4559C65.3565 30.5199 70.0165 112.5 71.1245 128.256C38.8445 183.708 46.9965 234.816 87.2605 265.732" fill="#FEC672"/>
<path d="M331.356 148.316L319.656 145.651C319.121 147.998 319.305 150.453 320.184 152.695L331.356 148.316ZM332.856 34.4039L341.124 25.7063L341.122 25.7046L332.856 34.4039ZM257.356 64.1439L251.84 74.8007C256.072 76.9917 261.2 76.4703 264.905 73.4722L257.356 64.1439ZM208.056 49.7999L209.118 37.847C209.027 37.8389 208.935 37.8318 208.843 37.8258L208.056 49.7999ZM157.144 56.4079L148.257 64.4709C151.458 67.9998 156.445 69.3003 160.962 67.7845L157.144 56.4079ZM87.0885 15.4559L93.9248 25.3183L93.9256 25.3176L87.0885 15.4559ZM71.1245 128.256L81.4953 134.293C82.7065 132.212 83.2638 129.816 83.0949 127.414L71.1245 128.256ZM283.059 299.964C313.881 288.503 336.326 267.686 347.078 239.841C357.765 212.16 356.307 179.093 342.529 143.937L320.184 152.695C332.35 183.739 332.702 210.442 324.688 231.196C316.739 251.786 299.972 268.069 274.694 277.468L283.059 299.964ZM343.057 150.981C344.848 143.118 350.148 118.606 352.553 93.5634C353.752 81.0831 354.284 67.9772 353.141 56.5293C352.071 45.823 349.285 33.4637 341.124 25.7063L324.589 43.1016C326.01 44.4522 328.265 48.9608 329.26 58.9145C330.18 68.1267 329.797 79.4727 328.663 91.2685C326.405 114.777 321.373 138.113 319.656 145.651L343.057 150.981ZM341.122 25.7046C333.538 18.4986 323.801 17.4844 315.525 18.6034C307.309 19.7143 298.811 23.089 291.06 27.0233C275.448 34.9471 259.739 46.7792 249.808 54.8157L264.905 73.4722C274.474 65.7287 288.611 55.1808 301.922 48.4245C308.632 45.0188 314.365 42.9786 318.741 42.387C323.056 41.8035 324.271 42.7992 324.591 43.1033L341.122 25.7046ZM262.873 53.4871C246.143 44.8266 227.883 39.5139 209.118 37.847L206.995 61.7529C222.65 63.1435 237.883 67.5756 251.84 74.8007L262.873 53.4871ZM208.843 37.8258C190.045 36.5908 171.187 39.0384 153.327 45.0313L160.962 67.7845C175.859 62.7857 191.59 60.744 207.27 61.7741L208.843 37.8258ZM166.032 48.345C157.448 38.8832 143.735 24.7843 129.521 14.5629C122.464 9.4878 114.583 4.85123 106.634 2.49524C98.6272 0.121911 88.8492 -0.366735 80.2513 5.59423L93.9256 25.3176C94.2877 25.0666 95.6398 24.2685 99.8142 25.5058C104.047 26.7604 109.4 29.6546 115.51 34.048C127.63 42.7635 139.985 55.3527 148.257 64.4709L166.032 48.345ZM80.2522 5.59362C70.9971 12.009 66.3498 23.7963 63.6531 34.2129C60.7696 45.3509 59.2881 58.3841 58.5616 70.9012C57.104 96.0181 58.5884 121.054 59.1541 129.098L83.0949 127.414C82.5526 119.702 81.153 95.8698 82.5213 72.2917C83.2079 60.4612 84.5669 49.1902 86.8871 40.2279C89.3942 30.544 92.3139 26.4349 93.9248 25.3183L80.2522 5.59362ZM60.7537 122.219C43.6112 151.667 36.6382 180.951 40.0868 207.728C43.5577 234.677 57.4607 257.98 79.9523 275.25L94.5687 256.214C76.7963 242.568 66.4913 224.858 63.8902 204.662C61.2668 184.293 66.3577 160.297 81.4953 134.293L60.7537 122.219Z" fill="black" mask="url(#path-3-outside-1_6037_7795)"/>
<path d="M325.256 48.568C312.088 36.052 267.828 75.176 267.828 75.176C286.664 88.164 303.148 108.88 318.284 134.032C318.284 134.032 338.424 61.08 325.256 48.568Z" fill="#E1A040"/>
<path d="M92.3199 29.9999C107.248 19.6599 144.484 64.8 144.484 64.8C122.948 75.136 102.52 93.8039 86.12 115.532C86.12 115.532 77.3919 40.3559 92.3199 29.9999Z" fill="#E1A040"/>
<path d="M309.044 196.676C309.565 193.904 306.896 191.075 303.083 190.358C299.269 189.64 295.754 191.305 295.233 194.077C294.711 196.848 297.38 199.677 301.194 200.395C305.007 201.113 308.522 199.448 309.044 196.676Z" fill="black"/>
<path d="M195.154 177.774C195.7 174.871 192.905 171.907 188.91 171.156C184.915 170.404 181.233 172.148 180.687 175.051C180.14 177.955 182.936 180.918 186.931 181.67C190.926 182.421 194.608 180.677 195.154 177.774Z" fill="black"/>
<path d="M232.5 295C166 298.5 105.5 276.5 82.5 262L67 288L53.5 313C148.3 329.4 214.167 307 232.5 295Z" fill="#E1A040"/>
<path d="M246.092 248.827L246.268 246.84C245.742 246.803 245.222 246.971 244.817 247.31C244.413 247.649 244.156 248.131 244.1 248.656L246.092 248.827ZM246.092 248.827L246.087 248.827L245.096 248.736C245.096 248.739 245.096 248.742 245.096 248.744M246.426 248.862L248.084 249.008L246.426 248.862Z" fill="black" stroke="black" stroke-width="6" stroke-linejoin="round"/>
<path d="M246.252 235.819L246.252 235.82L246.252 235.819Z" fill="black" stroke="black" stroke-width="6" stroke-linejoin="round"/>
<line x1="307.865" y1="249.929" x2="389.929" y2="263.135" stroke="black" stroke-width="5" stroke-linecap="round"/>
<line x1="307.385" y1="236.39" x2="391.39" y2="232.615" stroke="black" stroke-width="5" stroke-linecap="round"/>
<line x1="305.184" y1="260.463" x2="386.463" y2="288.816" stroke="black" stroke-width="5" stroke-linecap="round"/>
<line x1="181.843" y1="226.592" x2="101.592" y2="200.157" stroke="black" stroke-width="5" stroke-linecap="round"/>
<line x1="180.259" y1="238.233" x2="97.2327" y2="229.741" stroke="black" stroke-width="5" stroke-linecap="round"/>
<line x1="180.643" y1="249.635" x2="95.6348" y2="254.357" stroke="black" stroke-width="5" stroke-linecap="round"/>
<path d="M254.8 215.276L243.424 214.264C242.249 214.16 241.068 214.379 240.009 214.898C238.95 215.416 238.052 216.215 237.413 217.206C236.775 218.198 236.419 219.345 236.385 220.524C236.351 221.703 236.64 222.869 237.22 223.896L242.176 232.652C242.692 233.565 243.421 234.338 244.302 234.906C245.183 235.474 246.188 235.82 247.232 235.912C248.276 236.005 249.327 235.843 250.294 235.439C251.261 235.036 252.116 234.403 252.784 233.596L259.208 225.852C259.961 224.944 260.451 223.847 260.626 222.68C260.8 221.514 260.653 220.321 260.199 219.232C259.745 218.144 259.002 217.199 258.051 216.502C257.099 215.805 255.975 215.381 254.8 215.276Z" fill="#252525"/>
</svg>
