<svg xmlns="http://www.w3.org/2000/svg" fill="none" viewBox="0 0 472 472">
  <path fill="#0B0B33" d="M235.7 136.4a2.5 2.5 0 0 1-2.5-2.5V68.7a2.5 2.5 0 0 1 5 0v65.2a2.5 2.5 0 0 1-2.5 2.5Z"/>
  <path fill="#ACDBE6" d="M235.7 68.7a18.8 18.8 0 1 0 0-37.6 18.8 18.8 0 0 0 0 37.6Z"/>
  <path fill="#0B0B33" d="M277.2 136.4a2.5 2.5 0 0 1-2.3-1.6l-.2-.9v-48a2.5 2.5 0 0 1 2.5-2.4h45V40.1a2.5 2.5 0 1 1 5 0V86a2.5 2.5 0 0 1-2.4 2.5h-45.1v45.4a2.5 2.5 0 0 1-2.5 2.5Z"/>
  <path fill="#ACDBE6" d="M324.8 40.1a18.8 18.8 0 1 0 0-37.6 18.8 18.8 0 0 0 0 37.6Z"/>
  <path fill="#0B0B33" d="M194.2 136.4a2.5 2.5 0 0 1-2.5-2.5V88.5h-45A2.5 2.5 0 0 1 144 86V40a2.5 2.5 0 1 1 5 0v43.4h45a2.5 2.5 0 0 1 2.6 2.5v47.9a2.5 2.5 0 0 1-2.5 2.5Z"/>
  <path fill="#ACDBE6" d="M146.6 40.1a18.8 18.8 0 1 0 0-37.6 18.8 18.8 0 0 0 0 37.6Z"/>
  <path fill="#0B0B33" d="M235.7 71.2a21.3 21.3 0 1 1 0-42.6 21.3 21.3 0 0 1 0 42.6Zm0-37.7a16.3 16.3 0 1 0 0 32.7 16.3 16.3 0 0 0 0-32.7Zm89.1 9.1a21.3 21.3 0 1 1 0-42.6 21.3 21.3 0 0 1 0 42.6Zm0-37.6a16.3 16.3 0 1 0 0 32.6 16.3 16.3 0 0 0 0-32.6ZM146.6 42.6a21.3 21.3 0 1 1 0-42.6 21.3 21.3 0 0 1 0 42.6Zm0-37.6a16.4 16.4 0 1 0 0 32.7 16.4 16.4 0 0 0 0-32.7Zm89.1 400.1a2.5 2.5 0 0 1-2.5-2.4v-65.2a2.5 2.5 0 0 1 5 0v65.2a2.5 2.5 0 0 1-2.5 2.4Z"/>
  <path fill="#ACDBE6" d="M249.8 434a18.8 18.8 0 1 0-28.2-25 18.8 18.8 0 0 0 28.2 25Z"/>
  <path fill="#0B0B33" d="M146.6 433.7a2.5 2.5 0 0 1-2.5-2.5v-45.9a2.5 2.5 0 0 1 2.5-2.4h45.1v-45.5a2.5 2.5 0 0 1 5 0v48a2.5 2.5 0 0 1-2.5 2.4H149v43.4a2.5 2.5 0 0 1-2.5 2.5Z"/>
  <path fill="#ACDBE6" d="M146.6 468.9a18.8 18.8 0 1 0 0-37.7 18.8 18.8 0 0 0 0 37.7Z"/>
  <path fill="#0B0B33" d="M324.8 433.7a2.5 2.5 0 0 1-2.5-2.5v-43.4h-45.1a2.5 2.5 0 0 1-2.5-2.5v-47.9a2.5 2.5 0 0 1 5 0V383h45a2.5 2.5 0 0 1 2.5 2.4v46a2.5 2.5 0 0 1-2.4 2.4Z"/>
  <path fill="#ACDBE6" d="M324.8 468.9a18.8 18.8 0 1 0 0-37.7 18.8 18.8 0 0 0 0 37.7Z"/>
  <path fill="#0B0B33" d="M235.7 442.8a21.3 21.3 0 1 1 0-42.6 21.3 21.3 0 0 1 0 42.6Zm0-37.7a16.4 16.4 0 1 0 0 32.7 16.4 16.4 0 0 0 0-32.7Zm-89.1 66.3a21.3 21.3 0 1 1 0-42.6 21.3 21.3 0 0 1 0 42.6Zm0-37.7a16.3 16.3 0 1 0 0 32.8 16.3 16.3 0 0 0 0-32.8Zm178.2 37.7a21.3 21.3 0 1 1 0-42.6 21.3 21.3 0 0 1 0 42.6Zm0-37.7a16.3 16.3 0 1 0 0 32.8 16.3 16.3 0 0 0 0-32.8Zm77.9-195.5h-65.2a2.5 2.5 0 1 1 0-5h65.2a2.5 2.5 0 1 1 0 5Z"/>
  <path fill="#ACDBE6" d="M440 239.1a18.8 18.8 0 1 0-37-7 18.8 18.8 0 0 0 37 7Z"/>
  <path fill="#0B0B33" d="M431.2 327.2h-45.8a2.5 2.5 0 0 1-2.5-2.4v-45.1h-45.4a2.5 2.5 0 1 1 0-5h47.9a2.5 2.5 0 0 1 2.5 2.5v45h43.3a2.5 2.5 0 1 1 0 5Z"/>
  <path fill="#ACDBE6" d="M450 343.6a18.8 18.8 0 1 0 0-37.7 18.8 18.8 0 0 0 0 37.7Z"/>
  <path fill="#0B0B33" d="M385.4 196.7h-48a2.5 2.5 0 1 1 0-5H383v-45a2.5 2.5 0 0 1 2.5-2.5h45.8a2.5 2.5 0 0 1 0 5H388v45a2.5 2.5 0 0 1-2.5 2.5Z"/>
  <path fill="#ACDBE6" d="M450 165.4a18.8 18.8 0 1 0 0-37.6 18.8 18.8 0 0 0 0 37.6Z"/>
  <path fill="#0B0B33" d="M421.5 257a21.3 21.3 0 1 1 0-42.6 21.3 21.3 0 0 1 0 42.6Zm0-37.7a16.3 16.3 0 1 0 0 32.7 16.3 16.3 0 0 0 0-32.7ZM450 346a21.3 21.3 0 1 1 0-42.5 21.3 21.3 0 0 1 0 42.6Zm0-37.6a16.4 16.4 0 1 0 0 32.7 16.4 16.4 0 0 0 0-32.7Zm0-140.4a21.3 21.3 0 1 1 0-42.7 21.3 21.3 0 0 1 0 42.6Zm0-37.7a16.3 16.3 0 1 0 0 32.7 16.3 16.3 0 0 0 0-32.7ZM133.9 238.2H68.7a2.5 2.5 0 1 1 0-5h65.2a2.5 2.5 0 0 1 0 5Z"/>
  <path fill="#ACDBE6" d="M49.9 254.5a18.8 18.8 0 1 0 0-37.6 18.8 18.8 0 0 0 0 37.6Z"/>
  <path fill="#0B0B33" d="M133.9 196.7H86a2.5 2.5 0 0 1-2.3-1.5l-.2-1v-45.1H40.1a2.5 2.5 0 0 1 0-5h46a2.5 2.5 0 0 1 2.4 2.5v45h45.4a2.5 2.5 0 0 1 0 5Z"/>
  <path fill="#ACDBE6" d="M21.3 165.4a18.8 18.8 0 1 0 0-37.6 18.8 18.8 0 0 0 0 37.6Z"/>
  <path fill="#0B0B33" d="M86 327.2H40.1a2.5 2.5 0 1 1 0-5h43.4v-45a2.5 2.5 0 0 1 2.5-2.5h48a2.5 2.5 0 1 1 0 5H88.4v45a2.5 2.5 0 0 1-2.5 2.5Z"/>
  <path fill="#ACDBE6" d="M21.3 343.6a18.8 18.8 0 1 0 0-37.7 18.8 18.8 0 0 0 0 37.7Z"/>
  <path fill="#0B0B33" d="M49.9 257a21.3 21.3 0 1 1 0-42.6 21.3 21.3 0 0 1 0 42.6Zm0-37.7a16.4 16.4 0 1 0 0 32.7 16.4 16.4 0 0 0 0-32.7ZM21.3 168a21.3 21.3 0 1 1 0-42.7 21.3 21.3 0 0 1 0 42.6Zm0-37.7a16.3 16.3 0 1 0 0 32.7 16.3 16.3 0 0 0 0-32.7Zm0 215.7a21.3 21.3 0 1 1 0-42.5 21.3 21.3 0 0 1 0 42.6Zm0-37.6a16.4 16.4 0 1 0 0 32.7 16.4 16.4 0 0 0 0-32.7ZM337.5 340H133.9a2.5 2.5 0 0 1-2.5-2.5V133.9a2.5 2.5 0 0 1 2.5-2.5h203.6a2.5 2.5 0 0 1 2.4 2.5v203.6a2.5 2.5 0 0 1-2.4 2.4Zm-201.1-5H335V136.4H136.4V335Z"/>
  <path fill="#EA695F" d="M327.6 143.8H143.8v183.8h183.8V143.8Z"/>
  <path fill="#0B0B33" d="M327.6 330H143.8a2.5 2.5 0 0 1-2.5-2.4V143.8a2.5 2.5 0 0 1 2.5-2.5h183.8a2.5 2.5 0 0 1 2.4 2.5v183.8a2.5 2.5 0 0 1-2.4 2.4Zm-181.3-5H325V146.4H146.3V325Z"/>
  <path fill="#ACDBE6" d="m234.6 262.8-41.8-24.1a2.2 2.2 0 0 1-.8-3l41.8-71.8a2.2 2.2 0 0 1 3.8 0l41.7 71.8a2.2 2.2 0 0 1-.1 2.4l-.7.6-41.7 24.1a2.2 2.2 0 0 1-2.2 0Z"/>
  <path fill="#88CBDB" d="m279.3 235.7-41.7-71.8a2.1 2.1 0 0 0-2-1V263c.5 0 .8 0 1.2-.3l41.7-24.1a2.2 2.2 0 0 0 .8-3Z"/>
  <path fill="#ACDBE6" d="m235.8 271.6 43.3-25h.4a.3.3 0 0 1 0 .5L236 308.5a.3.3 0 0 1-.2.1.3.3 0 0 1-.3-.1L191.8 247a.3.3 0 0 1 0-.4.3.3 0 0 1 .4-.1l43.3 25a.3.3 0 0 0 .3 0Z"/>
  <path fill="#88CBDB" d="m279.1 246.6-43.3 25h-.1v37a.3.3 0 0 0 .3-.2l5.3-7.5 38.3-53.9v-.4a.3.3 0 0 0-.5 0Z"/>
  <path fill="#6FB6C7" d="M235.1 263 193 238.8a1.1 1.1 0 0 1 0-2l42.3-18a1.1 1.1 0 0 1 1 0l42.2 18a1.1 1.1 0 0 1 0 2L236.3 263a1.1 1.1 0 0 1-1 0Z"/>
  <path fill="#0B0B33" d="M235.7 265.5c-.8 0-1.6-.2-2.3-.6l-41.8-24.1a4.7 4.7 0 0 1-1.7-6.4l41.8-71.8a4.7 4.7 0 0 1 8 0l41.8 71.8a4.7 4.7 0 0 1-1.8 6.4L238 264.9c-.7.4-1.5.6-2.3.6Zm-41.4-28.9 41.4 24 41.3-24-41.3-71-41.4 71Z"/>
  <path fill="#0B0B33" d="M235.7 311a2.8 2.8 0 0 1-2.3-1.1l-43.6-61.4a2.8 2.8 0 0 1 3.7-4l42.2 24.4 42.2-24.4a2.8 2.8 0 0 1 3.7 4L238 309.9a2.8 2.8 0 0 1-2.3 1.2Zm-36.2-57.3 36.2 50.9 36.1-51-34.7 20.2a2.8 2.8 0 0 1-2.8 0l-34.8-20.1Z"/>
</svg>
